<?xml version="1.0" encoding="utf-8"?>
<!-- Generated by IcoMoon.io -->
<svg version="1.1" xmlns="http://www.w3.org/2000/svg" xmlns:xlink="http://www.w3.org/1999/xlink" width="26" height="1870" viewBox="0 0 26 1870">
<svg id="icon-undo" width="20" height="20" viewBox="0 0 20 20" x="0" y="0">
<path fill="#d81e06" d="M15.202 20c2.221-4.024 2.596-10.162-6.13-9.958v4.958l-7.5-7.5 7.5-7.5v4.851c10.448-0.272 11.613 9.223 6.13 15.149z"></path>
</svg>
<svg id="icon-redo" width="20" height="20" viewBox="0 0 20 20" x="0" y="25">
<path fill="#d81e06" d="M11.25 4.851v-4.851l7.5 7.5-7.5 7.5v-4.958c-8.726-0.205-8.351 5.933-6.13 9.958-5.482-5.926-4.318-15.421 6.13-15.149z"></path>
</svg>
<svg id="icon-remove" width="20" height="20" viewBox="0 0 20 20" x="0" y="50">
<path fill="#d81e06" d="M10 1.25c-4.833 0-8.75 3.917-8.75 8.75s3.917 8.75 8.75 8.75 8.75-3.917 8.75-8.75c0-4.833-3.917-8.75-8.75-8.75zM13.958 13.375c0.167 0.167 0.167 0.417 0 0.583s-0.417 0.167-0.583 0l-3.375-3.375-3.375 3.375c-0.167 0.167-0.417 0.167-0.583 0s-0.167-0.417 0-0.583l3.375-3.375-3.375-3.375c-0.167-0.167-0.167-0.417 0-0.583s0.417-0.167 0.583 0l3.375 3.375 3.375-3.375c0.167-0.167 0.417-0.167 0.583 0s0.167 0.417 0 0.583l-3.375 3.375 3.375 3.375z"></path>
</svg>
<svg id="icon-about" width="20" height="20" viewBox="0 0 20 20" x="0" y="75">
<path fill="#d81e06" d="M10.014 1.239c-4.835 0-8.754 3.919-8.754 8.754s3.919 8.754 8.754 8.754 8.754-3.92 8.754-8.754c0-4.835-3.919-8.754-8.754-8.754zM9.98 14.358c-0.499 0-0.904-0.416-0.904-0.929s0.404-0.929 0.904-0.929c0.499 0 0.904 0.416 0.904 0.929s-0.404 0.929-0.904 0.929zM12.504 8.52c-0.125 0.24-0.273 0.447-0.444 0.621s-0.48 0.467-0.924 0.88c-0.123 0.116-0.221 0.218-0.295 0.306s-0.129 0.168-0.165 0.242c-0.032 0.062-0.061 0.135-0.082 0.21l-0.002 0.008c-0.020 0.073-0.050 0.202-0.089 0.385-0.069 0.39-0.284 0.584-0.645 0.584-0.188 0-0.346-0.063-0.474-0.191s-0.192-0.316-0.192-0.568c0-0.314 0.047-0.587 0.141-0.817s0.219-0.433 0.374-0.607c0.155-0.174 0.365-0.381 0.629-0.621 0.231-0.209 0.398-0.368 0.501-0.474 0.1-0.103 0.186-0.221 0.256-0.348l0.004-0.008c0.071-0.131 0.106-0.274 0.106-0.427 0-0.3-0.108-0.553-0.322-0.759s-0.492-0.309-0.832-0.309c-0.398 0-0.69 0.104-0.878 0.312s-0.347 0.514-0.477 0.919c-0.123 0.423-0.356 0.635-0.699 0.635-0.202 0-0.373-0.074-0.512-0.222s-0.209-0.308-0.209-0.48c0-0.356 0.11-0.717 0.33-1.082s0.542-0.668 0.965-0.907c0.422-0.24 0.916-0.36 1.479-0.36 0.524 0 0.986 0.1 1.387 0.301s0.711 0.473 0.929 0.817c0.219 0.345 0.328 0.72 0.328 1.124 0 0.318-0.062 0.598-0.187 0.837z"></path>
</svg>
<svg id="icon-anchor" width="20" height="20" viewBox="0 0 20 20" x="0" y="100">
<path fill="#d81e06" d="M19.122 12.018l-1.396-1.396c-0.093-0.093-0.217-0.145-0.35-0.145-0.015 0-0.030 0.001-0.045 0.002-0.137-0.004-0.267 0.048-0.364 0.145l-1.429 1.429c-0.094 0.093-0.145 0.218-0.145 0.35s0.051 0.257 0.145 0.35c0.093 0.094 0.218 0.145 0.35 0.145s0.257-0.052 0.35-0.145l0.552-0.552c-0.134 1.601-0.834 3.108-1.974 4.249-1.156 1.156-2.687 1.858-4.312 1.979l-0-9.514 3.882-0c0.273 0 0.495-0.222 0.495-0.495s-0.222-0.495-0.495-0.495h-3.882v-5.508l3.477 3.477c0.093 0.093 0.218 0.145 0.35 0.145s0.257-0.052 0.35-0.145c0.094-0.093 0.145-0.218 0.145-0.35s-0.052-0.257-0.145-0.35l-4.292-4.292c-0.104-0.104-0.247-0.156-0.395-0.143-0.137-0.003-0.267 0.048-0.364 0.145l-4.293 4.292c-0.193 0.193-0.193 0.507 0 0.7 0.094 0.094 0.218 0.145 0.35 0.145s0.257-0.051 0.35-0.145l3.477-3.477v5.506h-3.882c-0.273 0-0.495 0.222-0.495 0.495s0.222 0.495 0.495 0.495l3.882-0v9.516c-1.639-0.113-3.182-0.816-4.347-1.982-1.151-1.151-1.852-2.671-1.978-4.287l0.555 0.555c0.093 0.093 0.218 0.145 0.35 0.145s0.257-0.052 0.35-0.145c0.093-0.094 0.145-0.218 0.145-0.35s-0.052-0.257-0.145-0.35l-1.396-1.396c-0.093-0.093-0.217-0.145-0.349-0.145-0.015 0-0.031 0.001-0.046 0.002-0.137-0.003-0.267 0.048-0.364 0.145l-1.429 1.429c-0.093 0.093-0.145 0.218-0.145 0.35s0.051 0.257 0.145 0.35 0.218 0.145 0.35 0.145c0.132 0 0.257-0.052 0.35-0.145l0.594-0.594c0.058 0.871 0.26 1.72 0.599 2.523 0.396 0.935 0.962 1.775 1.683 2.496s1.561 1.287 2.496 1.683c0.969 0.41 1.997 0.617 3.057 0.617s2.088-0.208 3.057-0.617c0.935-0.396 1.775-0.962 2.496-1.683s1.287-1.561 1.683-2.496c0.344-0.813 0.546-1.673 0.602-2.556l0.592 0.592c0.093 0.093 0.218 0.145 0.35 0.145s0.257-0.052 0.35-0.145 0.145-0.218 0.145-0.35c0-0.132-0.051-0.257-0.145-0.35z"></path>
</svg>
<svg id="icon-attach" width="20" height="20" viewBox="0 0 20 20" x="0" y="125">
<path fill="#d81e06" d="M6.769 14.115c0.231 0.231 0.577 0.192 0.808 0l3.846-3.846c0.269-0.269 0.731-0.308 1.077 0s0.308 0.846 0 1.154l-4.731 4.654c-1.038 1.038-2.769 1.038-3.808 0l-0.038-0.038c-1.038-1.038-1.038-2.769 0-3.808l8.346-8.346c1.038-1.038 2.769-1.038 3.808 0l0.038 0.038c1.038 1.038 1.038 2.769 0 3.808l-0.038 0.038c-0.192 0.192-0.231 0.462-0.077 0.692 0.231 0.423 0.423 0.885 0.538 1.346 0.077 0.308 0.423 0.385 0.654 0.192 0.308-0.308 0.577-0.615 0.577-0.615 1.962-1.962 1.962-5.154 0-7.115h-0.077c-1.962-1.962-5.154-1.962-7.115 0l-8.346 8.308c-1.962 1.962-1.962 5.154 0 7.115l0.077 0.077c1.962 1.962 5.115 1.962 7.077 0l4.769-4.731c1.231-1.231 1.192-3.231-0.077-4.462-1.231-1.192-3.231-1.115-4.423 0.115l-3.769 3.769c-0.231 0.231-0.231 0.615 0 0.846l0.885 0.808z"></path>
</svg>
<svg id="icon-b" width="20" height="20" viewBox="0 0 20 20" x="0" y="150">
<path fill="#d81e06" d="M15.769 7.308c0-2.308-1.846-4.231-4.038-4.231h-6.346c-0.423 0-0.769 0.346-0.769 0.769v12.692c0 0.423 0.346 0.769 0.769 0.769h6.346c2.192 0 4.038-1.923 4.038-4.231 0-1.115-0.423-2.115-1.115-2.885 0.692-0.769 1.115-1.769 1.115-2.885zM11.731 14.615h-4.423v-3.077h4.423c0.731 0 1.385 0.731 1.385 1.538s-0.654 1.538-1.385 1.538zM11.731 8.846h-4.423v-3.077h4.423c0.731 0 1.385 0.731 1.385 1.538s-0.654 1.538-1.385 1.538z"></path>
</svg>
<svg id="icon-baidu-map" width="20" height="20" viewBox="0 0 20 20" x="0" y="175">
<path fill="#d81e06" d="M11.842 13.558c0.906-0.195 0.782-1.278 0.756-1.514-0.044-0.365-0.473-1.002-1.057-0.953-0.733 0.066-0.84 1.125-0.84 1.125-0.1 0.49 0.237 1.537 1.141 1.342zM12.803 15.441c-0.027 0.076-0.086 0.271-0.034 0.44 0.101 0.381 0.432 0.397 0.432 0.397h0.474v-1.16h-0.508c-0.228 0.069-0.338 0.247-0.363 0.322zM13.523 11.742c0.501 0 0.905-0.576 0.905-1.288s-0.404-1.288-0.905-1.288c-0.499 0-0.905 0.576-0.905 1.288s0.405 1.288 0.905 1.288zM15.678 11.827c0.669 0.087 1.099-0.627 1.184-1.168 0.087-0.54-0.344-1.168-0.817-1.276-0.474-0.109-1.067 0.651-1.121 1.147-0.065 0.607 0.087 1.212 0.754 1.297zM17.317 15.008s-1.035-0.801-1.639-1.666c-0.819-1.276-1.982-0.757-2.372-0.108-0.388 0.649-0.992 1.059-1.077 1.168-0.087 0.107-1.25 0.735-0.992 1.882s1.165 1.124 1.165 1.124 0.668 0.066 1.443-0.107c0.776-0.172 1.443 0.043 1.443 0.043s1.812 0.607 2.308-0.562c0.495-1.169-0.28-1.775-0.28-1.775zM14.218 16.746h-1.178c-0.508-0.102-0.711-0.448-0.737-0.508s-0.169-0.339-0.093-0.813c0.22-0.712 0.847-0.762 0.847-0.762h0.627v-0.771l0.534 0.008v2.846zM16.411 16.738h-1.355c-0.525-0.135-0.55-0.508-0.55-0.508v-1.499l0.55-0.009v1.348c0.033 0.143 0.212 0.17 0.212 0.17h0.558v-1.508h0.585v2.007zM18.33 12.736c0-0.259-0.215-1.038-1.012-1.038s-0.906 0.736-0.906 1.256c0 0.496 0.042 1.189 1.034 1.167s0.884-1.124 0.884-1.384zM9.072 14.422c0.082 0.179 0.208 0.32 0.378 0.423s0.354 0.155 0.549 0.155 0.378-0.052 0.549-0.155c0.171-0.103 0.3-0.244 0.387-0.423l0.065-0.138c-0.252-0.104-0.481-0.266-0.666-0.492-0.432-0.528-0.542-1.223-0.46-1.697 0.078-0.653 0.492-1.735 1.594-1.834 0.040-0.004 0.086-0.006 0.133-0.006 0.001 0 0.003 0 0.004 0h-0c0.063 0 0.125 0.003 0.186 0.011 0.076-1.098 0.809-1.932 1.732-1.932 0.090 0 0.175 0.018 0.26 0.033l0.115-0.243c0.179-0.38 0.268-0.865 0.268-1.457 0-1.15-0.407-2.133-1.221-2.946s-1.797-1.221-2.947-1.221-2.132 0.407-2.946 1.221c-0.814 0.813-1.221 1.796-1.221 2.946 0 0.592 0.089 1.077 0.268 1.457l2.971 6.299zM8.527 5.193c0.407-0.407 0.898-0.61 1.473-0.61s1.066 0.203 1.473 0.61c0.407 0.407 0.61 0.898 0.61 1.473s-0.203 1.066-0.61 1.473c-0.407 0.407-0.898 0.61-1.473 0.61s-1.066-0.203-1.473-0.61c-0.407-0.407-0.61-0.897-0.61-1.473 0-0.574 0.203-1.065 0.61-1.473zM10.918 17.5h-9.251l3.333-5h2.244l0.393 0.833h-2.192l-2.223 3.333h7.264c0.104 0.343 0.252 0.617 0.43 0.833z"></path>
</svg>
<svg id="icon-blockquote" width="20" height="20" viewBox="0 0 20 20" x="0" y="200">
<path fill="#d81e06" d="M17.038 2.5c-3.462 0-6.115 2.692-6.115 6.154v8.269c0 0.308 0.269 0.577 0.577 0.577h6.538c0.308 0 0.577-0.269 0.577-0.577v-6.538c0-0.308-0.269-0.577-0.577-0.577h-4.808v-1.154c0-1.923 1.885-3.846 3.808-3.846h1c0.308 0 0.577-0.269 0.577-0.577v-1.154c0-0.308-0.269-0.577-0.577-0.577h-1zM7.5 2.5c-3.462 0-6.115 2.692-6.115 6.154v8.269c0 0.308 0.269 0.577 0.577 0.577h6.538c0.308 0 0.577-0.269 0.577-0.577v-6.538c0-0.308-0.269-0.577-0.577-0.577h-4.808v-1.154c0-1.923 1.885-3.846 3.808-3.846h1c0.308 0 0.577-0.269 0.577-0.577v-1.154c0-0.308-0.269-0.577-0.577-0.577h-1z"></path>
</svg>
<svg id="icon-both-align" width="20" height="20" viewBox="0 0 20 20" x="0" y="225">
<path fill="#d81e06" d="M17.685 1.267c0.693 0.001 1.137 0.306 1.313 0.871 0.262 0.842-0.337 1.595-1.296 1.597-2.968 0.007-5.936 0.003-8.903 0.003-1.535 0-5.171 0.003-6.707-0.002-0.633-0.002-1.075-0.29-1.266-0.796-0.319-0.85 0.277-1.666 1.249-1.671 2.26-0.010 6.621-0.003 8.881-0.003 2.243-0 4.486-0.003 6.729 0.001zM17.685 16.3c0.693 0.001 1.137 0.305 1.313 0.871 0.262 0.842-0.337 1.595-1.296 1.597-2.968 0.007-5.936 0.003-8.903 0.003-1.535 0-5.171 0.003-6.707-0.002-0.633-0.002-1.075-0.29-1.266-0.796-0.319-0.85 0.277-1.666 1.249-1.671 2.26-0.010 6.621-0.003 8.881-0.003 2.243-0 4.486-0.003 6.729 0.001zM17.685 11.2c0.693 0.001 1.137 0.306 1.313 0.871 0.262 0.842-0.337 1.595-1.296 1.597-2.968 0.007-5.936 0.003-8.903 0.003-1.535 0-5.171 0.003-6.707-0.002-0.633-0.002-1.075-0.29-1.266-0.796-0.319-0.85 0.277-1.666 1.249-1.671 2.26-0.010 6.621-0.003 8.881-0.003 2.243-0 4.486-0.003 6.729 0.001zM17.685 6.2c0.693 0.001 1.137 0.305 1.313 0.871 0.262 0.842-0.337 1.595-1.296 1.597-2.968 0.007-5.936 0.003-8.903 0.003-1.535 0-5.171 0.003-6.707-0.002-0.633-0.002-1.075-0.29-1.266-0.796-0.32-0.851 0.277-1.667 1.248-1.671 2.26-0.010 6.621-0.003 8.881-0.003 2.243-0 4.486-0.003 6.729 0.001z"></path>
</svg>
<svg id="icon-center-align" width="20" height="20" viewBox="0 0 20 20" x="0" y="250">
<path fill="#d81e06" d="M2.441 3.887q-0.508 0-0.859-0.361t-0.352-0.869 0.352-0.859 0.859-0.352h14.649q0.508 0 0.859 0.352t0.352 0.859-0.352 0.869-0.859 0.361h-14.649zM14.649 6.328q0.508 0 0.859 0.352t0.352 0.859-0.352 0.869-0.859 0.361h-9.766q-0.508 0-0.859-0.361t-0.352-0.869 0.352-0.859 0.859-0.352h9.766zM17.090 11.191q0.508 0 0.859 0.361t0.352 0.869-0.352 0.859-0.859 0.352h-14.649q-0.508 0-0.859-0.352t-0.352-0.859 0.352-0.869 0.859-0.361h14.649zM14.649 16.074q0.508 0 0.859 0.361t0.352 0.869-0.352 0.859-0.859 0.352h-9.766q-0.508 0-0.859-0.352t-0.352-0.859 0.352-0.869 0.859-0.361h9.766z"></path>
</svg>
<svg id="icon-clear-format" width="20" height="20" viewBox="0 0 20 20" x="0" y="275">
<path fill="#d81e06" d="M13.954 3.996l3.756-2.168 1.788 2.203-2.81 3.114zM11.096 2.813c1.098 0.135 6.445 6.648 6.308 7.38s-3.122 2.757-3.122 2.757l-6.771-7.787c-0 0 2.486-2.485 3.585-2.35zM6.863 6.121l6.537 7.61-4.012 5.216-9.058-11.472s1.796-0.074 3.291-0.468c0.979-0.258 3.241-0.886 3.241-0.886z"></path>
</svg>
<svg id="icon-clear-html" width="20" height="20" viewBox="0 0 20 20" x="0" y="300">
<path fill="#d81e06" d="M12.719 3.887c-0.132-0.132-0.349-0.132-0.481 0l-10.781 10.781c-0.132 0.132-0.132 0.349 0 0.481l2.097 2.097c0.132 0.132 0.393 0.24 0.58 0.24h6.717c0.187 0 0.448-0.108 0.58-0.24l7.083-7.083c0.132-0.132 0.132-0.349 0-0.481l-5.796-5.796zM10.765 15.967c-0.132 0.132-0.393 0.24-0.58 0.24h-5.201c-0.187 0-0.448-0.108-0.58-0.24l-0.988-0.988c-0.132-0.132-0.132-0.349 0-0.481l3.952-3.952c0.132-0.132 0.349-0.132 0.481 0l3.929 3.929c0.132 0.132 0.132 0.349 0 0.481l-1.012 1.012z"></path>
</svg>
<svg id="icon-clock" width="20" height="20" viewBox="0 0 20 20" x="0" y="325">
<path fill="#d81e06" d="M14.164 9.756h-3.415v-2.748c0-0.416-0.333-0.75-0.75-0.75s-0.75 0.333-0.75 0.75v3.665c0.083 0.333 0.333 0.583 0.666 0.583h4.248c0.416 0 0.75-0.333 0.75-0.75s-0.333-0.75-0.75-0.75zM16.913 3.843c-1.749-1.749-4.164-2.748-6.913-2.748-2.665 0-5.164 1.083-6.913 2.748-1.749 1.749-2.832 4.081-2.832 6.663s1.083 4.997 2.832 6.663c1.749 1.749 4.164 2.748 6.913 2.748 2.665 0 5.164-1.083 6.913-2.748 1.749-1.749 2.832-4.081 2.832-6.663s-1.083-4.997-2.832-6.663zM15.83 16.169c-1.499 1.416-3.581 2.332-5.83 2.332s-4.331-0.916-5.83-2.332c-1.499-1.416-2.415-3.415-2.415-5.663s0.916-4.248 2.415-5.663c1.499-1.416 3.581-2.332 5.83-2.332s4.331 0.916 5.83 2.332c1.499 1.416 2.415 3.498 2.415 5.663 0 2.249-0.916 4.248-2.415 5.663zM1.588 3.593l2.915-2.332c0.333-0.25 0.333-0.75 0.083-0.999-0.25-0.333-0.75-0.333-1.083-0.083l-2.915 2.332c-0.333 0.25-0.416 0.75-0.083 0.999 0.25 0.333 0.75 0.333 1.083 0.083zM18.412 3.593c0.333 0.25 0.833 0.167 1.083-0.083 0.25-0.333 0.167-0.75-0.083-0.999l-2.915-2.332c-0.333-0.25-0.833-0.167-1.083 0.083-0.25 0.333-0.25 0.75 0.083 0.999l2.915 2.332z"></path>
</svg>
<svg id="icon-code" width="20" height="20" viewBox="0 0 20 20" x="0" y="350">
<path fill="#d81e06" d="M6.269 4.692l-0.885-0.731c-0.269-0.192-0.577-0.154-0.808 0.077l-4.462 5.615c-0.154 0.192-0.154 0.5 0 0.731l4.5 5.577c0.192 0.231 0.538 0.308 0.808 0.077l0.885-0.731c0.269-0.192 0.308-0.577 0.077-0.808l-3.615-4.5 3.654-4.5c0.154-0.231 0.115-0.577-0.154-0.808zM19.885 9.654l-4.5-5.577c-0.192-0.231-0.538-0.308-0.808-0.077l-0.885 0.731c-0.269 0.192-0.308 0.577-0.077 0.808l3.654 4.5-3.654 4.5c-0.192 0.231-0.154 0.615 0.077 0.808l0.885 0.731c0.269 0.192 0.577 0.154 0.808-0.077l4.5-5.615c0.154-0.269 0.154-0.538 0-0.731zM12.154 4.154l-1.154-0.269c-0.308-0.077-0.654 0.115-0.731 0.423l-2.846 10.923c-0.077 0.308 0.115 0.615 0.423 0.692l1.154 0.269c0.308 0.077 0.654-0.115 0.731-0.423l2.846-10.923c0.077-0.346-0.115-0.615-0.423-0.692z"></path>
</svg>
<svg id="icon-copy" width="20" height="20" viewBox="0 0 20 20" x="0" y="375">
<path fill="#d81e06" d="M3.75 12.5h8.75v1.25h-8.75v-1.25z"></path>
<path fill="#d81e06" d="M3.75 10h8.75v1.25h-8.75v-1.25z"></path>
<path fill="#d81e06" d="M3.75 15h5v1.25h-5v-1.25z"></path>
<path fill="#d81e06" d="M17.5 0h-11.25c-1.375 0-2.5 1.125-2.5 2.5h1.25c0-0.75 0.5-1.25 1.25-1.25h11.25c0.75 0 1.25 0.5 1.25 1.25v11.25c0 0.75-0.5 1.25-1.25 1.25v1.25c1.375 0 2.5-1.125 2.5-2.5v-11.25c0-1.375-1.125-2.5-2.5-2.5z"></path>
<path fill="#d81e06" d="M3.75 7.5h8.75v1.25h-8.75v-1.25z"></path>
<path fill="#d81e06" d="M13.75 3.75h-11.25c-1.375 0-2.5 1.125-2.5 2.5v11.25c0 1.375 1.125 2.5 2.5 2.5h11.25c1.375 0 2.5-1.125 2.5-2.5v-11.25c0-1.375-1.125-2.5-2.5-2.5zM15 17.5c0 0.75-0.5 1.25-1.25 1.25h-11.25c-0.75 0-1.25-0.5-1.25-1.25v-11.25c0-0.75 0.5-1.25 1.25-1.25h11.25c0.75 0 1.25 0.5 1.25 1.25v11.25z"></path>
</svg>
<svg id="icon-crop" width="20" height="20" viewBox="0 0 20 20" x="0" y="400">
<path fill="#d81e06" d="M16.982 0.361c1.935 2.465 0.726 4.69 0.726 4.69l-7.561 9.561s-5.201-5.952-7.318-8.9c-2.116-2.945 0.124-5.711 0.124-5.711l7.197 9.14 6.833-8.779zM10.093 12.778c0.586 0 1.058-0.473 1.058-1.053 0-0.28-0.112-0.549-0.311-0.746s-0.468-0.308-0.747-0.307c-0.584 0-1.060 0.472-1.060 1.053s0.476 1.053 1.060 1.053zM14.551 12.994c0.932-0.003 1.827 0.364 2.487 1.022s1.034 1.55 1.036 2.481c-0.003 0.932-0.375 1.824-1.036 2.481s-1.556 1.024-2.487 1.021c-0.932 0.004-1.827-0.364-2.488-1.020s-1.034-1.55-1.036-2.482c0.002-0.932 0.375-1.825 1.036-2.482s1.556-1.024 2.488-1.021zM14.551 18.259c0.978 0 1.774-0.787 1.774-1.762s-0.796-1.764-1.774-1.764c-0.98 0-1.774 0.789-1.774 1.764s0.794 1.763 1.774 1.763v-0.001zM5.719 12.994c0.932-0.003 1.826 0.364 2.487 1.022s1.033 1.55 1.036 2.481c-0.006 1.94-1.582 3.508-3.523 3.502-0.932 0.004-1.827-0.364-2.488-1.020s-1.034-1.55-1.036-2.482c0.002-0.932 0.374-1.825 1.036-2.482s1.556-1.024 2.488-1.021zM5.719 18.259c0.978 0 1.774-0.787 1.774-1.762s-0.796-1.764-1.774-1.764c-0.98 0-1.774 0.789-1.774 1.764s0.794 1.763 1.774 1.763v-0.001z"></path>
</svg>
<svg id="icon-date" width="20" height="20" viewBox="0 0 20 20" x="0" y="425">
<path fill="#d81e06" d="M16.996 2.601h-0.73v3.546c0 0.754-0.611 1.366-1.366 1.366-0.754 0-1.365-0.612-1.365-1.366v-3.546h-7.050v3.538c0 0.755-0.612 1.367-1.367 1.367-0.754 0-1.365-0.612-1.365-1.367v-3.538h-0.75c-0.969 0-1.752 0.785-1.752 1.753v3.837h17.5v-3.837c0-0.967-0.784-1.752-1.754-1.752zM6.159 5.765c0 0.579-0.47 1.046-1.046 1.046v0c-0.579 0-1.046-0.467-1.046-1.046v-3.45c0-0.579 0.469-1.046 1.046-1.046v0c0.576 0 1.046 0.467 1.046 1.046v3.45zM15.975 5.765c0 0.579-0.468 1.046-1.047 1.046v0c-0.579 0-1.046-0.467-1.046-1.046v-3.45c0-0.579 0.467-1.046 1.046-1.046v0c0.58 0 1.047 0.467 1.047 1.046v3.45zM17.727 8.916v7.010c0 0.968-0.784 1.751-1.751 1.751h-11.966c-0.967 0-1.751-0.784-1.751-1.751v-7.010h-1.009v8.063c0 0.968 0.784 1.754 1.754 1.754h13.991c0.97 0 1.754-0.786 1.754-1.754v-8.063h-1.021zM10.491 13.998h1.376c0.136 0.63 0.486 0.811 0.828 0.811 0.506 0 0.814-0.328 0.814-0.904 0-0.325-0.121-0.782-0.814-0.8h-0.439v-0.863h0.199c0.693-0.017 0.859-0.301 0.859-0.825 0-0.339-0.251-0.585-0.657-0.596-0.533-0.014-0.614 0.231-0.748 0.554l-1.289 0.003c0.299-0.991 0.991-1.495 2.076-1.513 1.315 0.035 1.996 0.566 2.044 1.592 0 0.504-0.29 0.885-0.865 1.136 0.736 0.252 1.106 0.704 1.106 1.35-0.046 1.081-0.808 1.649-2.284 1.703-1.248 0.001-1.999-0.604-2.206-1.649zM9.541 14.349v1.219h-4.429v-0.786c0.482-0.756 0.964-1.324 1.865-1.9 0.829-0.541 1.118-0.954 1.118-1.35 0-0.088 0.004-0.541-0.664-0.541-0.465 0.017-0.806 0.228-0.806 0.706l-1.41 0.009c0.081-1.359 1.188-1.841 2.32-1.841 1.29 0.054 1.983 0.602 2.075 1.646 0.046 0.704-0.35 1.376-1.435 2.043-0.6 0.359-0.654 0.399-1.021 0.795h2.388z"></path>
</svg>
<svg id="icon-down-tag" width="20" height="20" viewBox="0 0 20 20" x="0" y="450">
<path fill="#d81e06" d="M16.663 16.889v1.362h3.337v1.75h-5.002v-3.986l3.33-1.637v-1.362h-3.33v-1.743h5.002v3.979l-3.337 1.637zM11.746 0.952l-4.31 6.504-4.317-6.504h-3.118l5.869 8.854-5.869 8.854h3.118l4.317-6.504 4.31 6.504h3.118l-5.869-8.854 5.869-8.854z"></path>
</svg>
<svg id="icon-face" width="20" height="20" viewBox="0 0 20 20" x="0" y="475">
<path fill="#d81e06" d="M10 20c-5.522 0-10-4.475-10-9.991s4.478-10.009 10-10.009 10 4.493 10 10.009c0 5.516-4.478 9.991-10 9.991zM10 1.25c-4.831 0-8.75 3.931-8.75 8.758s3.919 8.742 8.75 8.742 8.75-3.915 8.75-8.742c0-4.827-3.919-8.758-8.75-8.758zM10 16.25c-3.023 0-5.545-2.147-6.124-5h1.301c0.558 2.153 2.496 3.75 4.823 3.75s4.266-1.597 4.823-3.75h1.301c-0.579 2.853-3.1 5-6.124 5zM13.75 7.5c-0.69 0-1.25-0.56-1.25-1.25s0.56-1.25 1.25-1.25 1.25 0.56 1.25 1.25c0 0.69-0.56 1.25-1.25 1.25zM6.25 7.5c-0.69 0-1.25-0.56-1.25-1.25s0.56-1.25 1.25-1.25 1.25 0.56 1.25 1.25c0 0.69-0.56 1.25-1.25 1.25z"></path>
</svg>
<svg id="icon-find" width="20" height="20" viewBox="0 0 20 20" x="0" y="500">
<path fill="#d81e06" d="M1.25 0h7.5v1.25h-7.5zM11.25 0h7.5v1.25h-7.5zM18.594 6.25h-1.094v-5h-5v5h-5v-5h-5v5h-1.094c-0.774 0-1.406 0.633-1.406 1.406v10.938c0 0.774 0.633 1.406 1.406 1.406h5.938c0.774 0 1.406-0.633 1.406-1.406v-7.344h2.5v7.344c0 0.774 0.633 1.406 1.406 1.406h5.938c0.774 0 1.406-0.633 1.406-1.406v-10.938c0-0.774-0.633-1.406-1.406-1.406zM6.797 18.75h-4.844c-0.387 0-0.703-0.281-0.703-0.625s0.316-0.625 0.703-0.625h4.844c0.387 0 0.703 0.281 0.703 0.625s-0.316 0.625-0.703 0.625zM10.625 10h-1.25c-0.344 0-0.625-0.281-0.625-0.625s0.281-0.625 0.625-0.625h1.25c0.344 0 0.625 0.281 0.625 0.625s-0.281 0.625-0.625 0.625zM18.047 18.75h-4.844c-0.387 0-0.703-0.281-0.703-0.625s0.316-0.625 0.703-0.625h4.844c0.387 0 0.703 0.281 0.703 0.625s-0.316 0.625-0.703 0.625z"></path>
</svg>
<svg id="icon-flash" width="20" height="20" viewBox="0 0 20 20" x="0" y="525">
<path fill="#d81e06" d="M10 1.111c-4.889 0-8.889 4-8.889 8.889s4 8.889 8.889 8.889 8.889-4 8.889-8.889-4-8.889-8.889-8.889zM14.444 7.444c-1.556-0.111-2.444 1.556-2.444 1.556l1.778 0.111v2h-2.556c-1.333 4.889-4.556 4-4.556 4v-1.667s1.889 0 2.889-3.444c1.444-5.444 4.889-4.333 4.889-4.333v1.778z"></path>
</svg>
<svg id="icon-font-bgcolor" width="20" height="20" viewBox="0 0 20 20" x="0" y="550">
<path fill="#d81e06" d="M5.085 12.065c-0.188 0.183-0.282 0.439-0.282 0.768 0 0.289 0.102 0.525 0.307 0.707s0.475 0.274 0.812 0.274c0.468 0 0.854-0.164 1.157-0.494s0.455-0.742 0.455-1.239v-0.581l-1.42 0.192c-0.497 0.066-0.84 0.19-1.028 0.373zM16.192 1.815h-12.48c-1.379 0-2.496 1.117-2.496 2.496v11.232c0 1.379 1.117 2.496 2.496 2.496h12.48c1.379 0 2.496-1.117 2.496-2.496v-11.232c0-1.379-1.117-2.496-2.496-2.496zM8.598 14.544h-1.064v-0.938h-0.027c-0.42 0.72-1.040 1.080-1.859 1.080-0.589 0-1.057-0.159-1.404-0.477s-0.521-0.748-0.521-1.289c0-1.133 0.671-1.793 2.013-1.98l1.799-0.252c0-0.991-0.41-1.486-1.229-1.486-0.728 0-1.391 0.245-1.991 0.735v-1.037c0.603-0.377 1.3-0.565 2.089-0.565 1.462 0 2.194 0.768 2.194 2.303v3.905zM15.325 13.779c-0.503 0.605-1.173 0.908-2.010 0.908-0.79 0-1.391-0.333-1.804-0.998h-0.022v0.855h-1.075v-8.978h1.075v3.96h0.022c0.475-0.793 1.17-1.19 2.084-1.19 0.761 0 1.365 0.268 1.813 0.803s0.672 1.268 0.672 2.196c0 1.024-0.251 1.838-0.754 2.443zM13.298 9.224c-0.526 0-0.961 0.188-1.303 0.565s-0.513 0.856-0.513 1.437v0.823c0 0.49 0.159 0.904 0.477 1.242s0.717 0.507 1.196 0.507c0.57 0 1.016-0.219 1.338-0.658s0.483-1.046 0.483-1.821c0-0.64-0.15-1.149-0.45-1.527s-0.709-0.568-1.228-0.568z"></path>
</svg>
<svg id="icon-font" width="20" height="20" viewBox="0 0 20 20" x="0" y="575">
<path fill="#d81e06" d="M0.4 1.794v4.576h0.56c0.187-1.214 0.654-2.242 1.494-2.895 0.467-0.467 1.308-0.747 2.522-0.747h1.308v12.982c0 0.841-0.093 1.401-0.187 1.588-0.093 0.28-0.28 0.467-0.56 0.56-0.28 0.187-0.747 0.28-1.214 0.28h-0.56v0.467h9.34v-0.467h-0.56c-0.56 0-0.934-0.093-1.214-0.28s-0.467-0.374-0.56-0.56-0.187-0.747-0.187-1.588v-12.982h1.308c0.84 0 1.401 0.093 1.774 0.187 0.56 0.28 1.027 0.654 1.401 1.121s0.654 1.214 0.934 2.242h0.467v-4.483h-16.064z"></path>
<path fill="#d81e06" d="M10.666 7.858v2.926h0.317c0.106-0.776 0.37-1.433 0.845-1.851 0.264-0.298 0.739-0.478 1.426-0.478h0.739v8.3c0 0.538-0.053 0.896-0.106 1.015-0.053 0.179-0.158 0.299-0.317 0.358-0.158 0.119-0.423 0.179-0.687 0.179h-0.317v0.298h5.282v-0.298h-0.317c-0.317 0-0.528-0.060-0.687-0.179s-0.264-0.239-0.317-0.358c-0.053-0.119-0.106-0.477-0.106-1.015v-8.3h0.739c0.475 0 0.792 0.060 1.004 0.119 0.319 0.181 0.583 0.422 0.787 0.709l0.005 0.007c0.211 0.298 0.37 0.776 0.528 1.433h0.264v-2.866h-9.085z"></path>
</svg>
<svg id="icon-fontsize" width="20" height="20" viewBox="0 0 20 20" x="0" y="600">
<path fill="#d81e06" d="M13.438 15.54l3.328 3.926 3.342-3.926z"></path>
<path fill="#d81e06" d="M3.724 9.043l1.912-6.167 1.917 6.167h-3.83zM7.36 0.51h-2.915l-4.361 13.814h2.021l1.032-3.288h5.053l1.049 3.288h2.531l-4.409-13.814z"></path>
<path fill="#d81e06" d="M11.941 11.123l1.109-2.947 1.11 2.947h-2.219zM14.048 6.805h-1.689l-1.356 3.659 0.588 1.844 0.008-0.027h2.927l0.609 1.902h1.464l-2.552-7.379z"></path>
</svg>
<svg id="icon-full-screen" width="20" height="20" viewBox="0 0 20 20" x="0" y="625">
<path fill="#d81e06" d="M18.59 1.572c-0.117-0.117-0.273-0.182-0.439-0.182h-0.002l-5.627 0.021c-0.344 0.002-0.621 0.279-0.621 0.625 0.002 0.342 0.279 0.621 0.623 0.621h0.002l3.969-0.016-4.279 4.313c-0.242 0.242-0.24 0.639 0.004 0.881 0.121 0.121 0.279 0.182 0.438 0.182 0.16 0 0.32-0.063 0.441-0.186l4.432-4.465v4.025c0 0.344 0.277 0.623 0.623 0.623 0.344 0 0.623-0.277 0.623-0.623v-5.379c-0.002-0.166-0.068-0.324-0.186-0.441zM1.549 1.547c0.117-0.117 0.273-0.182 0.439-0.182h0.002l5.627 0.023c0.344 0.002 0.621 0.281 0.621 0.625-0.002 0.342-0.279 0.621-0.623 0.621h-0.002l-3.971-0.018 4.281 4.313c0.242 0.242 0.24 0.639-0.004 0.881-0.121 0.121-0.279 0.182-0.438 0.182-0.16 0-0.32-0.063-0.441-0.186l-4.432-4.465v4.025c0 0.344-0.277 0.623-0.623 0.623s-0.623-0.277-0.623-0.623v-5.379c0.002-0.164 0.068-0.324 0.186-0.441zM18.59 18.602c-0.117 0.117-0.273 0.182-0.439 0.182h-0.002l-5.627-0.021c-0.344-0.002-0.621-0.281-0.621-0.625 0.002-0.342 0.279-0.621 0.623-0.621h0.002l3.969 0.016-4.279-4.311c-0.242-0.242-0.24-0.639 0.004-0.881 0.121-0.121 0.279-0.182 0.438-0.182 0.16 0 0.32 0.063 0.441 0.186l4.432 4.463v-4.025c0-0.344 0.277-0.623 0.623-0.623 0.344 0 0.623 0.277 0.623 0.623v5.379c-0.002 0.166-0.068 0.324-0.186 0.441zM1.529 18.607c0.117 0.117 0.273 0.182 0.439 0.182h0.002l5.627-0.021c0.344-0.002 0.621-0.281 0.621-0.625-0.002-0.342-0.279-0.621-0.623-0.621h-0.002l-3.969 0.016 4.281-4.313c0.242-0.242 0.24-0.639-0.004-0.881-0.121-0.121-0.279-0.182-0.437-0.182-0.16 0-0.32 0.063-0.441 0.186l-4.434 4.465v-4.025c0-0.344-0.277-0.623-0.623-0.623s-0.623 0.277-0.623 0.623v5.379c0.002 0.166 0.068 0.324 0.186 0.441z"></path>
</svg>
<svg id="icon-func" width="21" height="20" viewBox="0 0 21 20" x="0" y="650">
<path fill="#d81e06" d="M0.664 19.387v-2.581h5.266c-1.545-1.149-2.702-2.405-3.475-3.772-0.728-1.258-1.158-2.768-1.158-4.379 0-0.018 0-0.036 0-0.054l-0 0.003c0-2.49 0.869-4.515 2.607-6.076 1.737-1.562 3.991-2.342 6.757-2.342 2.769 0 5.021 0.781 6.76 2.342 1.738 1.561 2.607 3.586 2.607 6.075 0 1.579-0.386 3.051-1.159 4.419-0.771 1.366-1.93 2.629-3.475 3.785h5.266v2.581h-8.567v-2.581c1.265-0.945 2.215-2.079 2.848-3.4 0.633-1.32 0.95-2.829 0.95-4.525 0-1.899-0.466-3.394-1.4-4.487-0.931-1.093-2.209-1.638-3.829-1.638s-2.896 0.548-3.829 1.645c-0.933 1.096-1.399 2.595-1.399 4.494 0 1.695 0.316 3.202 0.95 4.519 0.633 1.316 1.581 2.447 2.848 3.392v2.581h-8.571z"></path>
</svg>
<svg id="icon-google-map" width="20" height="20" viewBox="0 0 20 20" x="0" y="675">
<path fill="#d81e06" d="M13.516 10.648c0 0.777 0.26 1.339 0.773 1.669 0.419 0.27 0.907 0.311 1.159 0.311 0.062 0 0.111-0.002 0.145-0.005 0 0-0.080 0.522 0.307 1.040h-0.017c-0.672 0-2.862 0.14-2.862 1.941 0 1.832 2.012 1.925 2.415 1.925 0.032 0 0.050-0.001 0.050-0.001 0.004 0 0.033 0.001 0.083 0.001 0.259 0 0.928-0.033 1.55-0.335 0.807-0.392 1.215-1.073 1.215-2.023 0-0.919-0.623-1.467-1.078-1.866-0.277-0.243-0.517-0.454-0.517-0.658 0-0.208 0.175-0.365 0.397-0.563 0.359-0.321 0.697-0.777 0.697-1.641 0-0.759-0.098-1.268-0.705-1.592 0.063-0.033 0.287-0.056 0.398-0.071 0.328-0.045 0.809-0.096 0.809-0.364v-0.052h-2.395c-0.023-0.001-2.422 0.088-2.422 2.284zM17.383 15.342c0.046 0.732-0.581 1.273-1.522 1.342-0.956 0.070-1.742-0.36-1.788-1.092-0.023-0.352 0.133-0.696 0.435-0.971 0.307-0.278 0.728-0.449 1.187-0.483 0.054-0.003 0.107-0.006 0.162-0.006 0.884 0 1.483 0.52 1.527 1.21zM16.757 10.148c0.235 0.827-0.12 1.691-0.685 1.85-0.060 0.017-0.128 0.028-0.2 0.028-0 0-0 0-0 0h0c-0.518 0-1.032-0.524-1.222-1.246-0.106-0.406-0.098-0.76 0.024-1.101 0.12-0.335 0.335-0.562 0.606-0.638 0.060-0.017 0.128-0.028 0.2-0.028 0 0 0 0 0 0h-0c0.626 0 1.028 0.259 1.277 1.135zM9.072 14.422c0.082 0.179 0.208 0.32 0.378 0.423s0.354 0.155 0.549 0.155 0.378-0.052 0.549-0.155c0.171-0.103 0.3-0.244 0.387-0.423l1.593-3.388c-0.012-0.123-0.022-0.249-0.022-0.385 0-1.315 0.637-2.178 1.442-2.689 0.137-0.355 0.217-0.776 0.217-1.292 0-1.15-0.407-2.133-1.221-2.946-0.813-0.815-1.796-1.222-2.946-1.222s-2.133 0.407-2.946 1.221c-0.814 0.813-1.221 1.796-1.221 2.946 0 0.592 0.089 1.078 0.268 1.457l2.971 6.299zM8.527 5.193c0.407-0.407 0.898-0.61 1.473-0.61s1.066 0.203 1.473 0.61c0.407 0.407 0.61 0.898 0.61 1.473s-0.203 1.066-0.61 1.473c-0.407 0.407-0.898 0.61-1.473 0.61s-1.066-0.203-1.473-0.61c-0.407-0.407-0.61-0.897-0.61-1.473 0-0.574 0.203-1.065 0.61-1.473zM12.369 13.333l0.392-0.833h0.281c0.171 0.236 0.373 0.437 0.604 0.6l0.008 0.005c-0.143 0.068-0.276 0.145-0.402 0.227h-0.882zM12.73 17.5h-11.063l3.333-5h2.244l0.393 0.833h-2.192l-2.223 3.333h8.993c0.124 0.319 0.293 0.599 0.513 0.833z"></path>
</svg>
<svg id="icon-graft" width="21" height="20" viewBox="0 0 21 20" x="0" y="700">
<path fill="#d81e06" d="M20.508 4.48c0.133-0.416 0.485-1.518-0.243-2.035-0.214-0.147-0.478-0.235-0.763-0.235-0.016 0-0.032 0-0.048 0.001l0.002-0c-0.561 0-1.416 0.333-2.393 0.892-0.037-0.075-0.084-0.14-0.139-0.196l0 0c-1.794-1.79-4.271-2.898-7.006-2.898-5.474 0-9.913 4.435-9.918 9.908v0.001c-0 0.011-0 0.025-0 0.039 0 2.83 1.196 5.381 3.111 7.174l0.005 0.005c0.133 0.126 0.314 0.204 0.512 0.204 0.001 0 0.001 0 0.002 0h0.055c-0.364 0.362-0.756 0.697-1.172 1l-0.028 0.020c-0.194 0.138-0.319 0.361-0.319 0.614 0 0.349 0.237 0.642 0.559 0.726l0.005 0.001c0.789 0.19 1.695 0.299 2.627 0.299 0.005 0 0.010 0 0.014 0h-0.001c1.545 0 2.82-0.324 3.802-0.971v0.058c0 0.415 0.336 0.751 0.751 0.751v0c5.475-0.006 9.912-4.443 9.918-9.918v-0.001c0.001-0.010 0.001-0.023 0.001-0.035 0-0.415-0.336-0.751-0.751-0.751s-0.751 0.336-0.751 0.751c0 0.012 0 0.024 0.001 0.037l-0-0.002c-0.007 4.608-3.712 8.349-8.306 8.413l-0.006 0c0.772-0.767 1.167-1.633 1.133-2.492-0.021-0.42-0.142-0.807-0.34-1.144l0.006 0.012c0.208 0.070 0.447 0.11 0.696 0.11 0.004 0 0.009-0 0.013-0h-0.001c3.437-0.002 8.119-7.679 8.969-10.337zM5.652 17.262c0.335-0.587 1.513-2.49 2.71-2.49 0.261 0.007 0.502 0.089 0.704 0.225l-0.005-0.003c0.331 0.188 0.559 0.523 0.595 0.914l0 0.005c0.026 0.534-0.375 1.16-1.102 1.718s-1.822 0.869-3.186 0.869c-0.227 0-0.461-0.008-0.701-0.026 0.373-0.354 0.698-0.753 0.967-1.19l0.015-0.025zM10.943 11.281c1.34-3.236 6.508-7.040 8.218-7.52-0.162 0.616-0.709 1.979-1.942 3.948-2.053 3.249-4.437 5.608-5.687 5.608-0.004 0-0.008 0-0.013 0-0.208 0-0.396-0.089-0.527-0.231l-0-0c-0.374-0.374-0.39-0.982-0.049-1.804zM1.5 9.917c0-0.002 0-0.005 0-0.007 0-4.647 3.767-8.414 8.414-8.414 2.294 0 4.373 0.918 5.891 2.406l-0.001-0.001c-2.471 1.705-5.258 4.42-6.247 6.805-0.527 1.273-0.409 2.179-0.089 2.807-0.325-0.151-0.705-0.24-1.106-0.241h-0c-1.857 0-3.288 1.985-3.992 3.199-0.027-0.17-0.108-0.318-0.225-0.428l-0-0c-1.629-1.526-2.644-3.691-2.644-6.092 0-0.012 0-0.024 0-0.035v0.002z"></path>
<path fill="#d81e06" d="M11.164 5.88c1.072 0 1.942-0.869 1.942-1.942s-0.869-1.942-1.942-1.942c-1.072 0-1.942 0.869-1.942 1.942v0c0 1.072 0.869 1.942 1.942 1.942v0zM11.164 4.38c-0.243 0-0.44-0.197-0.44-0.44s0.197-0.44 0.44-0.44c0.243 0 0.44 0.197 0.44 0.44v0c0 0.243-0.197 0.44-0.44 0.44v0zM6.742 11.264c0-1.072-0.869-1.942-1.942-1.942s-1.942 0.869-1.942 1.942c0 1.072 0.869 1.942 1.942 1.942v0c1.072 0 1.942-0.869 1.942-1.942v0zM4.801 10.824c0.002-0 0.005-0 0.008-0 0.243 0 0.44 0.197 0.44 0.44s-0.197 0.44-0.44 0.44c-0.243 0-0.44-0.197-0.44-0.44v0c0-0 0-0 0-0 0-0.241 0.193-0.436 0.433-0.44h0zM6.221 8.836c1.43 0 2.589-1.159 2.589-2.589s-1.159-2.589-2.589-2.589c-1.43 0-2.589 1.159-2.589 2.589v0c0 1.43 1.159 2.589 2.589 2.589v0zM6.221 5.153c0.602 0 1.091 0.488 1.091 1.091s-0.488 1.091-1.091 1.091c-0.602 0-1.091-0.488-1.091-1.091v0c0.002-0.601 0.489-1.088 1.090-1.089h0z"></path>
</svg>
<svg id="icon-image" width="20" height="20" viewBox="0 0 20 20" x="0" y="725">
<path fill="#d81e06" d="M19.231 3.846c0-0.846-0.692-1.538-1.538-1.538h-15.385c-0.846 0-1.538 0.692-1.538 1.538v12.308c0 0.846 0.692 1.538 1.538 1.538h15.385c0.846 0 1.538-0.692 1.538-1.538v-12.308zM15.231 14.615h-11.154c-0.462 0-0.731-0.5-0.5-0.885l3.385-5.885c0.154-0.269 0.5-0.269 0.654 0l2.038 3.5c0.154 0.231 0.5 0.269 0.654 0.038l1.654-2.385c0.154-0.231 0.5-0.231 0.654 0l3.038 4.846c0.231 0.346 0 0.769-0.423 0.769zM14.231 7.692c-0.846 0-1.538-0.692-1.538-1.538s0.692-1.538 1.538-1.538 1.538 0.692 1.538 1.538-0.692 1.538-1.538 1.538z"></path>
</svg>
<svg id="icon-insert-col" width="20" height="20" viewBox="0 0 20 20" x="0" y="750">
<path fill="#d81e06" d="M17.5 0h-2.5s-1.25 0.56-1.25 1.25v12.5c0 0.69 0.56 1.25 1.25 1.25h2.5c0.69 0 1.25-0.56 1.25-1.25v-12.5c0-0.69-0.56-1.25-1.25-1.25zM17.5 13.75h-2.5v-3.75h2.5v3.75zM17.5 8.75h-2.5v-2.5h2.5v2.5zM17.5 5h-2.5v-3.75h2.5v3.75zM11.25 16.25l-2.5 3.75h6.25l-2.5-3.75h-1.25zM10 13.75v-12.5c0-0.69-0.56-1.25-1.25-1.25h-6.25s-1.25 0.56-1.25 1.25v12.5c0 0.69 0.56 1.25 1.25 1.25h6.25c0.69 0 1.25-0.56 1.25-1.25zM8.75 8.75h-2.5v-2.5h2.5v2.5zM8.75 1.25v3.75h-2.5v-3.75h2.5zM5 13.75h-2.5v-3.75h2.5v3.75zM5 8.75h-2.5v-2.5h2.5v2.5zM5 5h-2.5v-3.75h2.5v3.75zM6.25 10h2.5v3.75h-2.5v-3.75z"></path>
</svg>
<svg id="icon-insert-row" width="23" height="20" viewBox="0 0 23 20" x="0" y="775">
<path fill="#d81e06" d="M21.429 20h-14.286c-0.789 0-1.429-0.64-1.429-1.429v-7.143s0.64-1.429 1.429-1.429h14.286c0.789 0 1.429 0.64 1.429 1.429v7.143s-0.64 1.429-1.429 1.429zM11.429 11.429h-4.286v2.857h4.286v-2.857zM11.429 15.714h-4.286v2.857h4.286v-2.857zM15.714 11.429h-2.857v2.857h2.857v-2.857zM15.714 15.714h-2.857v2.857h2.857v-2.857zM21.429 11.429h-4.286v2.857h4.286v-2.857zM17.143 15.714v2.857h4.286v-2.857h-4.286zM21.429 5.714h-14.286c-0.789 0-1.429-0.64-1.429-1.429v-2.857s0.64-1.429 1.429-1.429h14.286c0.789 0 1.429 0.64 1.429 1.429v2.857s-0.64 1.429-1.429 1.429zM11.429 1.429h-4.286v2.857h4.286v-2.857zM15.714 1.429h-2.857v2.857h2.857v-2.857zM21.429 1.429h-4.286v2.857h4.286v-2.857zM0 4.286l4.286 2.857v1.429l-4.286 2.857v-7.143z"></path>
</svg>
<svg id="icon-italic" width="20" height="20" viewBox="0 0 20 20" x="0" y="800">
<path fill="#d81e06" d="M14.615 4.731v-0.5c0-0.423-0.346-0.769-0.769-0.769h-5.385c-0.423 0-0.769 0.346-0.769 0.769v0.769c0 0.423 0.346 0.769 0.769 0.769 0.654 0 1.154 0.615 1 1.231l-1.385 6.769c-0.115 0.5-0.538 0.846-1 0.846h-0.923c-0.423 0-0.769 0.346-0.769 0.769v0.769c0 0.423 0.346 0.769 0.769 0.769h5.385c0.423 0 0.769-0.346 0.769-0.769v-0.769c0-0.423-0.346-0.769-0.769-0.769-0.654 0-1.154-0.615-1-1.231l1.385-6.769c0.115-0.5 0.538-0.846 1-0.846h0.654c0.577 0 1.038-0.462 1.038-1.038z"></path>
</svg>
<svg id="icon-left-align" width="20" height="20" viewBox="0 0 20 20" x="0" y="825">
<path fill="#d81e06" d="M1.435 0h17.129c0.78 0 1.404 0.624 1.404 1.435 0 0.78-0.624 1.435-1.435 1.435h-17.098c-0.811-0.031-1.435-0.655-1.435-1.435 0-0.811 0.624-1.435 1.435-1.435zM1.435 5.71h11.42c0.78 0 1.435 0.624 1.435 1.435 0 0.78-0.624 1.435-1.435 1.435h-11.42c-0.78 0-1.435-0.624-1.435-1.435s0.624-1.435 1.435-1.435zM1.435 11.42h17.129c0.78 0 1.435 0.624 1.435 1.435 0 0.78-0.624 1.435-1.435 1.435h-17.129c-0.78 0-1.435-0.624-1.435-1.435s0.624-1.435 1.435-1.435zM1.435 17.129h11.42c0.78 0 1.435 0.624 1.435 1.435 0 0.78-0.624 1.435-1.435 1.435h-11.42c-0.811-0.031-1.435-0.655-1.435-1.466 0-0.78 0.624-1.404 1.435-1.404z"></path>
</svg>
<svg id="icon-left-indent" width="22" height="20" viewBox="0 0 22 20" x="0" y="850">
<path fill="#d81e06" d="M0 2.353h21.86v-2.353h-21.86v2.353zM9.389 6.765h12.471v-2.353h-12.471v2.353zM9.389 11.177h12.471v-2.353h-12.471v2.353zM9.389 15.588h12.471v-2.353h-12.471v2.353zM0 20h21.86v-2.353h-21.86v2.353zM5.523 14.464v-8.284l-5.523 4.142 5.523 4.142z"></path>
</svg>
<svg id="icon-line-height" width="20" height="20" viewBox="0 0 20 20" x="0" y="875">
<path fill="#d81e06" d="M3.124 14.878v-9.602c-0.208 0-0.408 0.012-0.606-0.003-0.332-0.024-0.424-0.25-0.223-0.584 0.318-0.529 0.649-1.046 0.987-1.556 0.181-0.273 0.471-0.266 0.653 0.011 0.327 0.498 0.651 1.001 0.959 1.518 0.069 0.116 0.109 0.317 0.079 0.449-0.020 0.084-0.191 0.143-0.299 0.157-0.191 0.025-0.385 0.007-0.586 0.007v9.59c0.187 0 0.373-0.021 0.555 0.007 0.121 0.019 0.308 0.077 0.333 0.172 0.034 0.13-0.026 0.342-0.1 0.468-0.295 0.496-0.608 0.976-0.921 1.455-0.213 0.325-0.494 0.323-0.708-0.006-0.312-0.48-0.616-0.969-0.922-1.454-0.028-0.044-0.054-0.094-0.076-0.147l-0.002-0.007c-0.11-0.271-0.043-0.446 0.201-0.468 0.219-0.021 0.441-0.004 0.678-0.004z"></path>
<path fill="#d81e06" d="M18.551 0v1.458h-17.112v-1.458zM18.561 18.542v1.458h-17.112v-1.458zM12.57 3.695l5.215 13.253h-1.652l-1.411-3.712h-6.088l-1.411 3.712h-1.633l5.216-13.253zM14.24 11.954l-2.505-6.626h-0.074l-2.543 6.626z"></path>
</svg>
<svg id="icon-link" width="20" height="20" viewBox="0 0 20 20" x="0" y="900">
<path fill="#d81e06" d="M10.462 16.038l-0.808-0.115s-0.538-0.115-0.808-0.231c-0.154-0.038-0.346 0-0.462 0.115l-0.192 0.192c-1.115 1.115-2.923 1.231-4.077 0.231-1.308-1.115-1.346-3.115-0.154-4.308l2.923-2.923c0.385-0.385 0.846-0.615 1.308-0.769 0.615-0.154 1.269-0.115 1.846 0.115 0.346 0.154 0.692 0.346 1 0.654 0.154 0.154 0.269 0.308 0.385 0.5 0.154 0.269 0.5 0.308 0.692 0.077l1.077-1.077c0.154-0.154 0.154-0.385 0.038-0.577-0.154-0.231-0.346-0.423-0.538-0.615-0.269-0.269-0.577-0.538-0.923-0.731-0.538-0.346-1.154-0.577-1.808-0.692-1.192-0.231-2.5-0.038-3.577 0.538-0.423 0.231-0.846 0.538-1.192 0.885l-2.808 2.808c-2.038 2.038-2.192 5.346-0.231 7.423 2.038 2.231 5.5 2.269 7.615 0.154l0.962-0.962c0.269-0.192 0.077-0.654-0.269-0.692zM17.538 2.231c-2.115-1.962-5.423-1.808-7.423 0.231l-0.885 0.846c-0.269 0.269-0.077 0.731 0.269 0.769 0.538 0.038 1.077 0.154 1.615 0.308 0.154 0.038 0.346 0 0.462-0.115l0.192-0.192c1.115-1.115 2.923-1.231 4.077-0.231 1.308 1.115 1.346 3.115 0.154 4.308l-2.923 2.923c-0.385 0.385-0.846 0.615-1.308 0.769-0.615 0.154-1.269 0.115-1.846-0.115-0.346-0.154-0.692-0.346-1-0.654-0.154-0.154-0.269-0.308-0.385-0.5-0.154-0.269-0.5-0.308-0.692-0.077l-1.077 1.077c-0.154 0.154-0.154 0.385-0.038 0.577 0.154 0.231 0.346 0.423 0.538 0.615 0.269 0.269 0.615 0.538 0.923 0.731 0.538 0.346 1.154 0.577 1.769 0.692 1.192 0.231 2.5 0.038 3.577-0.538 0.423-0.231 0.846-0.538 1.192-0.885l2.923-2.923c2.154-2.115 2.077-5.577-0.115-7.615z"></path>
</svg>
<svg id="icon-merge-col" width="20" height="20" viewBox="0 0 20 20" x="0" y="925">
<path fill="#d81e06" d="M15.967 16.8h-5.4c-0.067 0-0.133-0.067-0.133-0.133v-13.333c0-0.067 0.067-0.133 0.133-0.133h5.4c0.067 0 0.133 0.067 0.133 0.133v0.8c0 0.067-0.067 0.133-0.133 0.133h-4.2c-0.067 0-0.133 0.067-0.133 0.133v11.233c0 0.067 0.067 0.133 0.133 0.133h4.2c0.067 0 0.133 0.067 0.133 0.133v0.767c0.033 0.067-0.033 0.133-0.133 0.133z"></path>
<path fill="#d81e06" d="M12.933 10.1l3.167 2.967c0.067 0.067 0.2 0 0.2-0.1v-1.9c0-0.067 0.067-0.133 0.1-0.133h2.8c0.1 0 0.167-0.067 0.167-0.167v-1.567c0-0.1-0.067-0.167-0.167-0.167h-2.8c-0.067 0-0.1-0.067-0.1-0.133v-1.9c0-0.1-0.1-0.167-0.2-0.1l-3.167 2.967c-0.067 0.1-0.067 0.167 0 0.233zM4.033 3.2h5.4c0.067 0 0.133 0.067 0.133 0.133v13.333c0 0.067-0.067 0.133-0.133 0.133h-5.4c-0.067 0-0.133-0.067-0.133-0.133v-0.8c0-0.067 0.067-0.133 0.133-0.133h4.2c0.067 0 0.133-0.067 0.133-0.133v-11.2c0-0.067-0.067-0.133-0.133-0.133h-4.2c-0.067 0-0.133-0.067-0.133-0.133v-0.8c-0.033-0.067 0.033-0.133 0.133-0.133z"></path>
<path fill="#d81e06" d="M7.067 9.9l-3.167-2.967c-0.067-0.067-0.2 0-0.2 0.1v1.9c0 0.067-0.067 0.133-0.1 0.133h-2.8c-0.1 0-0.167 0.067-0.167 0.167v1.567c0 0.1 0.067 0.167 0.167 0.167h2.8c0.067 0 0.1 0.067 0.1 0.133v1.9c0 0.1 0.1 0.167 0.2 0.1l3.167-2.967c0.067-0.1 0.067-0.167 0-0.233z"></path>
</svg>
<svg id="icon-merge-table" width="26" height="20" viewBox="0 0 26 20" x="0" y="950">
<path fill="#d81e06" d="M1.855 2.871c0-0.769 0.302-1.497 0.853-2.038 0.538-0.541 1.256-0.832 2.025-0.832h0.020l13.556 0.074c0.769 0 1.497 0.302 2.038 0.853s0.832 1.277 0.832 2.046l-0.074 13.556c0 0.769-0.302 1.497-0.853 2.038-0.541 0.541-1.259 0.832-2.028 0.832h-0.020l-13.556-0.074c-0.769 0-1.497-0.302-2.038-0.853s-0.832-1.279-0.832-2.048l0.076-13.553zM7.748 1.31l-3.015-0.020c-0.416 0-0.812 0.168-1.122 0.467-0.302 0.302-0.467 0.695-0.467 1.122l-0.020 3.076h4.624v-4.645zM13.725 1.34l-4.678-0.030v4.647h4.678v-4.617zM15.025 18.079l3.19 0.020c0.426 0 0.822-0.155 1.122-0.457 0.302-0.302 0.467-0.695 0.467-1.122l0.020-3.223h-4.802v4.782zM15.025 11.997h4.805l0.020-4.741h-4.835v4.741h0.010zM15.025 5.957h4.835l0.020-2.995c0-0.416-0.155-0.822-0.457-1.122-0.302-0.302-0.695-0.467-1.122-0.467l-3.274-0.020v4.604z"></path>
<path fill="#d81e06" d="M6.256 1.848c0.010 0 0.010 0.010 0 0z"></path>
</svg>
<svg id="icon-merge-td" width="20" height="20" viewBox="0 0 20 20" x="0" y="975">
<path fill="#d81e06" d="M14.213 11.867h3.547v-3.733h-15.52v3.733h11.973zM0 0h20v20h-20v-20zM17.76 5.973v-3.733h-6.667v3.733h6.667zM17.76 17.76v-3.733h-6.667v3.733h6.667zM8.907 5.973v-3.733h-6.667v3.733h6.667zM8.907 17.76v-3.733h-6.667v3.733h6.667z"></path>
</svg>
<svg id="icon-multiple-image" width="20" height="20" viewBox="0 0 20 20" x="0" y="1000">
<path fill="#d81e06" d="M16.25 1.25v15.042h-15v-15.042h15zM16.25 0h-15c-0.708 0-1.25 0.542-1.25 1.25v15.042c0 0.708 0.542 1.25 1.25 1.25h15.042c0.708 0 1.25-0.542 1.25-1.25v-15.042c-0.042-0.708-0.583-1.25-1.292-1.25z"></path>
<path fill="#d81e06" d="M16.25 15.333c0.708-0.75 1-2.875 1-3.875 0-2.542-2-4.625-4.542-4.625-1.792 0-3.292 1-4.042 2.458-0.833 1.292-2.25 2.125-3.875 2.125-1.708 0-3.167-0.917-4-2.292-0.417 0.708-0.625 1.5-0.625 2.333 0 0.917 0.25 2.917 0.708 3.625v1.417h1.25c0.75 0.375 1.667 0.833 2.667 0.833s1.917-0.5 2.667-0.833h2.625c0.75 0.375 1.667 0.833 2.667 0.833s1.917-0.5 2.667-0.833h0.875v-1.167z"></path>
<path fill="#d81e06" d="M3.458 5.292c0 0 0 0 0 0 0 0.874 0.709 1.583 1.583 1.583s1.583-0.709 1.583-1.583c0-0 0-0 0-0v0c0-0 0-0 0-0 0-0.874-0.709-1.583-1.583-1.583s-1.583 0.709-1.583 1.583c0 0 0 0 0 0v0z"></path>
<path fill="#d81e06" d="M19.542 20h-11.25c-0.333 0-0.625-0.292-0.625-0.625s0.292-0.625 0.625-0.625h10.625v-10.625c0-0.333 0.292-0.625 0.625-0.625s0.625 0.292 0.625 0.625v11.25c0 0.333-0.292 0.625-0.625 0.625z"></path>
</svg>
<svg id="icon-ok" width="20" height="20" viewBox="0 0 20 20" x="0" y="1025">
<path fill="#d81e06" d="M10 20c-5.523 0-10-4.477-10-10s4.477-10 10-10c5.523 0 10 4.477 10 10s-4.477 10-10 10zM15.221 6.233l-6.117 6.118-4.205-4.206-1.147 1.147 5.352 5.353 7.264-7.265-1.147-1.147z"></path>
</svg>
<svg id="icon-ol" width="20" height="20" viewBox="0 0 20 20" x="0" y="1050">
<path fill="#d81e06" d="M8.889 2.222h10c0.667 0 1.111-0.444 1.111-1.111s-0.444-1.111-1.111-1.111h-10c-0.667 0-1.111 0.444-1.111 1.111s0.444 1.111 1.111 1.111z"></path>
<path fill="#d81e06" d="M18.889 5.889h-10c-0.667 0-1.111 0.444-1.111 1.111s0.444 1.111 1.111 1.111h10c0.667 0 1.111-0.444 1.111-1.111s-0.444-1.111-1.111-1.111z"></path>
<path fill="#d81e06" d="M18.889 11.889h-10c-0.667 0-1.111 0.444-1.111 1.111s0.444 1.111 1.111 1.111h10c0.667 0 1.111-0.444 1.111-1.111s-0.444-1.111-1.111-1.111z"></path>
<path fill="#d81e06" d="M18.889 17.778h-10c-0.667 0-1.111 0.444-1.111 1.111s0.444 1.111 1.111 1.111h10c0.667 0 1.111-0.444 1.111-1.111s-0.444-1.111-1.111-1.111z"></path>
<path fill="#d81e06" d="M3.222 0.667h-1l-2.111 1.111 0.333 1.111 1.556-0.889v4.667h-1.667v1.111h4.444v-1.111h-1.556z"></path>
<path fill="#d81e06" d="M2.778 17.444c0.222-0.222 0.556-0.556 0.778-0.778s0.444-0.444 0.556-0.667c0.111-0.222 0.222-0.444 0.333-0.667s0.111-0.444 0.111-0.778c0-0.333-0.111-0.778-0.222-1-0.111-0.333-0.333-0.444-0.444-0.667s-0.556-0.333-0.778-0.444c-0.222-0.111-0.556-0.111-0.889-0.111-0.444 0-0.889 0.111-1.222 0.222-0.333 0.222-0.778 0.444-1 0.778l0.556 0.778c0.222-0.222 0.444-0.333 0.667-0.556s0.556-0.222 0.778-0.222c0.222 0 0.444 0 0.556 0s0.333 0.111 0.333 0.333 0.222 0.222 0.222 0.444 0.111 0.333 0.111 0.444c0 0.222 0 0.333 0 0.556s-0.111 0.333-0.222 0.444-0.222 0.333-0.444 0.556-0.444 0.556-0.667 0.889l-1.889 1.556v1.111h4.667v-1.111h-3l1.111-1.111z"></path>
</svg>
<svg id="icon-paiban" width="20" height="20" viewBox="0 0 20 20" x="0" y="1075">
<path fill="#d81e06" d="M18.97 15.99l-6.85-6c-0.38-0.33-0.95-0.29-1.28 0.090l-1.94 2.22c-0.33 0.38-0.29 0.95 0.080 1.28l2.7 2.36 0.57-0.65 0.8-0.92c0.11-0.12 0.3-0.13 0.43-0.020l0.020 0.020c0.13 0.11 0.14 0.3 0.030 0.43l-0.8 0.92-0.57 0.65 0.97 0.85 0.45-0.52 0.53-0.6c0.11-0.13 0.3-0.14 0.43-0.030l0.020 0.020c0.13 0.11 0.14 0.3 0.030 0.43l-0.53 0.6-0.45 0.52 0.97 0.85 0.57-0.65 0.8-0.92c0.11-0.12 0.3-0.13 0.43-0.020l0.020 0.020c0.13 0.11 0.14 0.3 0.030 0.43l-0.8 0.92-0.57 0.65 0.77 0.68c0.38 0.33 0.95 0.29 1.28-0.090l1.95-2.22c0.33-0.4 0.29-0.97-0.090-1.3zM12.2 12.43c-0.22 0.25-0.61 0.26-0.88 0.030s-0.31-0.62-0.090-0.87c0.22-0.25 0.61-0.26 0.88-0.030s0.31 0.62 0.090 0.87z"></path>
<path fill="#d81e06" d="M7.23 13.53h-3.66c-0.38 0-0.69-0.31-0.69-0.69s0.31-0.69 0.69-0.69h3.87l1.18-1.39h-5.050c-0.38 0-0.69-0.31-0.69-0.69s0.31-0.7 0.69-0.7h6.23l0.59-0.7c0.43-0.5 1.19-0.57 1.69-0.14l3.29 2.79v-7.52l-0.090-0.090v-0.010l-3.6-3.6h-9.73c-1.020 0-1.85 0.83-1.85 1.85v13.43c0 1.020 0.83 1.85 1.85 1.85h9.5l-3.93-3.33c-0.12-0.1-0.22-0.23-0.29-0.37zM3.57 3.8h4.63c0.38 0 0.69 0.31 0.69 0.69s-0.31 0.69-0.69 0.69h-4.63c-0.38 0-0.69-0.31-0.69-0.69 0-0.37 0.31-0.69 0.69-0.69zM3.57 6.58h8.33c0.38 0 0.69 0.31 0.69 0.7 0 0.38-0.31 0.69-0.69 0.69h-8.33c-0.38 0-0.69-0.31-0.69-0.69 0-0.39 0.31-0.7 0.69-0.7z"></path>
</svg>
<svg id="icon-paste-text" width="20" height="20" viewBox="0 0 20 20" x="0" y="1100">
<path fill="#d81e06" d="M13.124 2.5h-2.5v-1.249c0-0.688-0.563-1.25-1.25-1.25h-2.5c-0.687 0-1.249 0.562-1.249 1.25v1.249h-2.5v2.847h9.999v-2.847zM9.374 2.5h-2.5v-1.248c0.001 0 0.002-0.001 0.003-0.002h2.495c0.001 0 0.002 0.001 0.003 0.002l-0.001 1.248zM10.212 11.911h2.465v4.792h1.256v-4.792h2.458v-1.257h-6.179z"></path>
<path fill="#d81e06" d="M15.624 7.352v-4.227c0-0.344-0.281-0.625-0.624-0.625h-1.25v1.019h-0.014v2.41h-11.24v-2.179h0.005v-1.25h-1.249c-0.344 0-0.625 0.281-0.625 0.625v14.564c0 0.344 0.281 0.625 0.625 0.625h5.965v1.684l12.159 0.002v-12.648h-3.75zM8.466 18.749v-10.147h9.658l0.004 10.146-9.662 0.001z"></path>
</svg>
<svg id="icon-paste-word" width="20" height="20" viewBox="0 0 20 20" x="0" y="1125">
<path fill="#d81e06" d="M17.035 11.024v0.182c-0.243 0.021-0.425 0.193-0.547 0.516l-1.548 4.614h-0.212l-1.305-3.582h-0.030l-1.427 3.582h-0.212l-1.639-4.614c-0.101-0.323-0.283-0.495-0.546-0.516v-0.182h2.276v0.182c-0.344 0.021-0.506 0.132-0.486 0.334 0 0.101 0.020 0.193 0.061 0.273l0.738 2.236 0.898-2.248-0.057-0.321c-0.121-0.162-0.314-0.253-0.576-0.273v-0.182h2.428v0.182c-0.040 0.021-0.071 0.030-0.091 0.030-0.345 0-0.496 0.091-0.455 0.273 0 0.041 0.010 0.132 0.031 0.273 0.020 0.081 0.040 0.132 0.060 0.152l0.716 2.098 0.667-2.257c0.020-0.040 0.105-0.526-0.077-0.54-0.021-0.001-0.041-0.009-0.061-0.030v-0.182h1.397zM13.125 2.5h-2.5v-1.25c0-0.687-0.563-1.25-1.25-1.25h-2.5c-0.687 0-1.25 0.563-1.25 1.25v1.25h-2.5v2.847h10v-2.847zM9.375 2.5h-2.5v-1.248l0.003-0.003h2.496c0.001 0.001 0.002 0.001 0.003 0.003l-0.001 1.248zM15.624 7.352v-4.227c0-0.344-0.281-0.625-0.624-0.625h-1.25v1.019h-0.014v2.41h-11.24v-2.18h0.004v-1.25h-1.25c-0.343 0-0.625 0.281-0.625 0.625v14.564c0 0.344 0.282 0.625 0.625 0.625h5.966v1.684l12.159 0.001v-12.648h-3.751zM8.466 18.749v-10.147h9.659l0.003 10.147h-9.662z"></path>
</svg>
<svg id="icon-paste" width="20" height="20" viewBox="0 0 20 20" x="0" y="1150">
<path fill="#d81e06" d="M17.055 8.75h-6.609c-1.623 0-2.945 1.32-2.945 2.945v5.359c0 1.623 1.32 2.945 2.945 2.945h6.611c1.623 0 2.945-1.32 2.945-2.945v-5.361c-0.002-1.623-1.322-2.943-2.947-2.943zM18.75 17.055c0 0.934-0.76 1.695-1.695 1.695h-6.609c-0.934 0-1.695-0.76-1.695-1.695v-5.361c0-0.934 0.76-1.695 1.695-1.695h6.611c0.934 0 1.695 0.76 1.695 1.695v5.361h-0.002z"></path>
<path fill="#d81e06" d="M5.566 16.25h-3.043c-0.701 0-1.273-0.57-1.273-1.273v-12.453c0-0.701 0.57-1.273 1.273-1.273h11.203c0.701 0 1.273 0.57 1.273 1.273v4.371c0 0.346 0.279 0.625 0.625 0.625s0.625-0.279 0.625-0.625v-4.371c0-1.391-1.133-2.523-2.523-2.523h-11.203c-1.391 0-2.523 1.131-2.523 2.523v12.453c0 1.391 1.133 2.523 2.523 2.523h3.043c0.346 0 0.625-0.279 0.625-0.625s-0.279-0.625-0.625-0.625z"></path>
<path fill="#d81e06" d="M13.125 3.75h-10c-0.346 0-0.625 0.279-0.625 0.625s0.279 0.625 0.625 0.625h10c0.346 0 0.625-0.279 0.625-0.625s-0.279-0.625-0.625-0.625zM6.875 7.5h-3.75c-0.346 0-0.625 0.279-0.625 0.625s0.279 0.625 0.625 0.625h3.75c0.346 0 0.625-0.279 0.625-0.625s-0.279-0.625-0.625-0.625zM5.625 11.25h-2.5c-0.346 0-0.625 0.279-0.625 0.625s0.279 0.625 0.625 0.625h2.5c0.346 0 0.625-0.279 0.625-0.625s-0.279-0.625-0.625-0.625z"></path>
</svg>
<svg id="icon-preview" width="20" height="20" viewBox="0 0 20 20" x="0" y="1175">
<path fill="#d81e06" d="M14.457 13.189c1.576-2.166 1.369-5.168-0.531-7.057-1.033-1.033-2.402-1.594-3.861-1.594-1.457 0-2.826 0.57-3.861 1.594-1.014 1.033-1.586 2.402-1.586 3.857s0.57 2.824 1.596 3.857c1.033 1.033 2.402 1.594 3.861 1.594 1.152 0 2.256-0.363 3.201-1.063l2.836 2.824c0.158 0.158 0.365 0.246 0.592 0.246s0.434-0.088 0.592-0.246c0.324-0.324 0.324-0.855 0-1.182l-2.838-2.832zM7.395 12.668c-1.477-1.477-1.477-3.867 0-5.344 0.719-0.719 1.664-1.102 2.678-1.102s1.959 0.395 2.678 1.102c1.477 1.477 1.477 3.867 0 5.344-1.426 1.416-3.928 1.416-5.355 0z"></path>
<path fill="#d81e06" d="M14.289 1.25h-8.568c-2.461 0-4.471 1.998-4.471 4.469v8.563c0 2.461 2 4.469 4.471 4.469h4.648c0.463 0 0.838-0.373 0.838-0.836s-0.375-0.836-0.838-0.836h-4.648c-1.537 0-2.787-1.25-2.787-2.785v-8.564c0-1.535 1.25-2.785 2.787-2.785h8.568c1.537 0 2.787 1.25 2.787 2.785v4.557c0 0.463 0.375 0.836 0.838 0.836s0.838-0.373 0.838-0.836v-4.576c-0.002-2.461-2.002-4.459-4.463-4.459z"></path>
</svg>
<svg id="icon-print" width="20" height="20" viewBox="0 0 20 20" x="0" y="1200">
<path fill="#d81e06" d="M6.225 18.672h7.459c0.686 0 1.219-0.576 1.219-1.264v-3.717h-9.902v3.717c0 0.688 0.539 1.264 1.225 1.264zM13.684 1.27h-7.459c-0.686 0-1.225 0.535-1.225 1.223v3.699h9.902v-3.699c0-0.688-0.533-1.223-1.219-1.223z"></path>
<path fill="#d81e06" d="M16.152 6.191v1.27h-12.402v-1.27h-1.254c-0.688 0-1.227 0.586-1.227 1.273v8.701c0 0.688 0.539 1.256 1.227 1.256h1.254v-4.98h12.402v4.98h1.26c0.686 0 1.26-0.568 1.26-1.256v-8.701c0-0.688-0.572-1.273-1.26-1.273h-1.26zM16.152 9.98h-3.711v-1.27h3.711v1.27z"></path>
</svg>
<svg id="icon-remove-col" width="20" height="20" viewBox="0 0 20 20" x="0" y="1225">
<path fill="#d81e06" d="M20 20h-2.5l-2.5-2.917-2.5 2.917h-2.5l3.75-4.375-3.75-4.375h2.5l2.5 2.917 2.5-2.917h2.5l-3.75 4.375 3.75 4.375zM8.75 15h1.25v1.25h-1.25s-1.25-0.56-1.25-1.25v-13.75c0-0.69 0.56-1.25 1.25-1.25h6.25c0.69 0 1.25 0.56 1.25 1.25v8.75h-1.25v-3.75h-2.5v3.75h-1.25v-3.75h-2.5v3.75h1.25v1.25h-1.25v3.75zM12.5 5h2.5v-3.75h-2.5v3.75zM11.25 5v-3.75h-2.5v3.75h2.5zM1.25 16.25s-1.25-0.56-1.25-1.25v-13.75c0-0.69 0.56-1.25 1.25-1.25h2.5c0.69 0 1.25 0.56 1.25 1.25v15h-3.75zM3.75 1.25h-2.5v3.75h2.5v-3.75zM3.75 6.25h-2.5v3.75h2.5v-3.75zM3.75 11.25h-2.5v3.75h2.5v-3.75z"></path>
</svg>
<svg id="icon-remove-row" width="20" height="20" viewBox="0 0 20 20" x="0" y="1250">
<path fill="#d81e06" d="M20 20h-2.5l-2.5-2.917-2.5 2.917h-2.5l3.75-4.375-3.75-4.375h2.5l2.5 2.917 2.5-2.917h2.5l-3.75 4.375 3.75 4.375zM11.25 10h-5v2.5h2.083l0.417 1.25h-2.5v2.5h3.333l0.417 1.25h-8.75c-0.69 0-1.25-0.56-1.25-1.25v-6.25s0.56-1.25 1.25-1.25h15v1.25h-5zM5 10h-3.75v2.5h3.75v-2.5zM5 13.75h-3.75v2.5h3.75v-2.5zM1.25 5c-0.69 0-1.25-0.56-1.25-1.25v-2.5s0.56-1.25 1.25-1.25h13.75c0.69 0 1.25 0.56 1.25 1.25v3.75h-15zM5 1.25h-3.75v2.5h3.75v-2.5zM10 1.25h-3.75v2.5h3.75v-2.5zM15 1.25h-3.75v2.5h3.75v-2.5z"></path>
</svg>
<svg id="icon-remove-table" width="23" height="20" viewBox="0 0 23 20" x="0" y="1275">
<path fill="#d81e06" d="M18.571 20v-4.286l4.286-2.857v4.286l-4.286 2.857zM10 14.286l5.714-4.286h7.143l-5.714 4.286h-7.143zM17.143 5.714h-4.286v4.286h-5.714v2.857h1.429v1.429h-7.143c-0.789 0-1.429-0.64-1.429-1.429v-11.429c0-0.789 0.64-1.429 1.429-1.429h15.714c0.789 0 1.429 0.64 1.429 1.429v7.143h-1.429v-2.857zM5.714 1.429h-4.286v2.857h4.286v-2.857zM5.714 5.714h-4.286v2.857h4.286v-2.857zM5.714 10h-4.286v2.857h4.286v-2.857zM11.429 1.429h-4.286v2.857h4.286v-2.857zM11.429 5.714h-4.286v2.857h4.286v-2.857zM17.143 1.429h-4.286v2.857h4.286v-2.857zM17.143 20h-7.143v-4.286h7.143v4.286z"></path>
</svg>
<svg id="icon-remove2" width="20" height="20" viewBox="0 0 20 20" x="0" y="1300">
<path fill="#d81e06" d="M7.767 17.255c0.502 0 0.909-0.406 0.909-0.907v-10.889c0-0.502-0.407-0.909-0.909-0.909s-0.909 0.407-0.909 0.909v0 10.889c0 0.501 0.407 0.907 0.909 0.907zM19.123 1.83h-7.722v-0.907c0-0.501-0.407-0.907-0.909-0.907h-0.909c-0.501 0-0.909 0.406-0.909 0.907v0.907h-7.721c-0.010-0-0.021-0.001-0.032-0.001-0.501 0-0.908 0.407-0.908 0.908s0.407 0.908 0.908 0.908c0.011 0 0.023-0 0.034-0.001l-0.002 0h1.362v14.518c0.001 1.002 0.813 1.815 1.816 1.815 0 0 0.001 0 0.001 0h11.81c0 0 0.001 0 0.001 0 1.003 0 1.815-0.812 1.816-1.815v-14.518h1.363c0.010 0 0.021 0.001 0.032 0.001 0.501 0 0.908-0.407 0.908-0.908s-0.407-0.908-0.908-0.908c-0.011 0-0.023 0-0.034 0.001l0.002-0zM15.943 17.255c0 0.501-0.406 0.907-0.909 0.907h-9.993c-0.502 0-0.909-0.406-0.909-0.907v-13.611h11.81v13.611zM12.309 17.255c0.502 0 0.909-0.406 0.909-0.907v-10.889c0-0.502-0.407-0.908-0.908-0.908s-0.908 0.407-0.908 0.908v0 10.889c0 0.501 0.407 0.907 0.909 0.907z"></path>
</svg>
<svg id="icon-right-align" width="20" height="20" viewBox="0 0 20 20" x="0" y="1325">
<path fill="#d81e06" d="M4.371 13.708c-0.311-0.003-0.661-0.078-0.921-0.237-0.477-0.293-0.611-0.834-0.436-1.368 0.178-0.546 0.605-0.838 1.338-0.84 4.468-0.007 8.936-0.008 13.404 0.007 0.295 0.001 0.625 0.088 0.877 0.237 0.468 0.278 0.625 0.84 0.464 1.363-0.165 0.535-0.585 0.843-1.218 0.845-2.277 0.007-4.554 0.003-6.831 0.003-2.225 0-4.451 0.009-6.676-0.010zM17.785 1.267c0.692 0.001 1.137 0.305 1.313 0.871 0.262 0.842-0.337 1.595-1.296 1.597-2.968 0.007-5.936 0.003-8.903 0.003-1.536 0-5.171 0.004-6.707-0.002-0.633-0.002-1.075-0.29-1.266-0.796-0.32-0.85 0.277-1.666 1.249-1.671 2.26-0.010 6.621-0.003 8.881-0.003 2.243-0 4.486-0.003 6.729 0.001zM11.68 8.728c-2.037 0-4.075 0.005-6.112-0.002-0.827-0.003-1.371-0.503-1.369-1.225 0.002-0.725 0.545-1.241 1.366-1.243 4.075-0.008 8.15-0.010 12.225 0.009 0.306 0.001 0.651 0.123 0.909 0.294 0.438 0.291 0.56 0.846 0.387 1.342-0.179 0.516-0.588 0.817-1.189 0.82-2.072 0.009-4.144 0.004-6.216 0.004v0.002zM17.849 16.277c0.783 0.004 1.316 0.522 1.311 1.229-0.005 0.703-0.546 1.224-1.323 1.226-4.109 0.006-7.418 0.009-11.527-0.009-0.289-0.001-0.615-0.122-0.856-0.287-0.429-0.293-0.551-0.851-0.381-1.348 0.172-0.5 0.597-0.808 1.197-0.81 2.072-0.009 3.344-0.003 5.415-0.004 2.055-0.001 4.109-0.007 6.164 0.003z"></path>
</svg>
<svg id="icon-right-indent" width="22" height="20" viewBox="0 0 22 20" x="0" y="1350">
<path fill="#d81e06" d="M0 2.353h21.86v-2.353h-21.86zM9.389 6.765h12.471v-2.353h-12.471zM9.389 11.177h12.471v-2.353h-12.471zM9.389 15.588h12.471v-2.353h-12.471zM0 20h21.86v-2.353h-21.86zM0 14.465v-8.284l5.523 4.142z"></path>
</svg>
<svg id="icon-selectall" width="20" height="20" viewBox="0 0 20 20" x="0" y="1375">
<path fill="#d81e06" d="M9.090 11.2c-0.27 0-0.52-0.1-0.71-0.29l-3.92-3.93c-0.14-0.14-0.22-0.33-0.22-0.52 0-0.2 0.080-0.38 0.22-0.52s0.33-0.22 0.52-0.22c0.2 0 0.38 0.080 0.52 0.22l3.59 3.59 7.63-7.63c0.14-0.14 0.33-0.22 0.52-0.22 0.2 0 0.38 0.080 0.52 0.22 0.29 0.29 0.29 0.76 0 1.050l-7.96 7.96c-0.19 0.19-0.44 0.29-0.71 0.29z"></path>
<path fill="#d81e06" d="M2.5 15.95c-0.32 0-0.62-0.13-0.85-0.35-0.23-0.23-0.35-0.53-0.35-0.85v-12.22c0-0.32 0.13-0.62 0.35-0.85 0.23-0.23 0.53-0.35 0.85-0.35h8.47c0.41 0 0.74 0.33 0.74 0.74s-0.33 0.74-0.74 0.74h-8.19v11.66h11.15v-5.38c0-0.41 0.34-0.75 0.75-0.75s0.75 0.34 0.75 0.75v5.66c0 0.32-0.13 0.62-0.35 0.85-0.23 0.23-0.53 0.35-0.85 0.35h-11.73z"></path>
<path fill="#d81e06" d="M6.25 18.77c-0.41 0-0.74-0.33-0.74-0.74s0.33-0.74 0.74-0.74l11.010-0.010v-9.6c0-0.41 0.33-0.74 0.74-0.74 0.2 0 0.39 0.080 0.53 0.22s0.22 0.33 0.22 0.53l-0.010 10.010c0 0.59-0.48 1.060-1.070 1.060l-11.42 0.010z"></path>
</svg>
<svg id="icon-source-code" width="20" height="20" viewBox="0 0 20 20" x="0" y="1400">
<path fill="#d81e06" d="M18 20h-16c-1.105 0-2-0.895-2-2v-16c0-1.105 0.895-2 2-2h16c1.105 0 2 0.895 2 2v16c0 1.105-0.895 2-2 2zM18 3h-16v15h16v-15zM8 7l-3 4 3 3-1 1-4-4 4-5 1 1zM12 5l-2 11h-2l2-11h2zM13 6l4 5-4 4-1-1 3-3-3-4 1-1z"></path>
</svg>
<svg id="icon-split-page" width="20" height="20" viewBox="0 0 20 20" x="0" y="1425">
<path fill="#d81e06" d="M17.813 1.25v5h-15.625v-5h1.302v3.75h13.021v-3.75zM2.188 18.75v-5h15.625v5h-1.301v-3.75h-13.021v3.75zM1.25 8.75h17.5v2.5h-17.5z"></path>
</svg>
<svg id="icon-split" width="20" height="20" viewBox="0 0 20 20" x="0" y="1450">
<path fill="#d81e06" d="M17.778 15.514l-2.263 2.263h-1.278l3.541-3.541v1.278zM17.778 17.178v0.6h-0.6l0.6-0.6zM17.778 12.573l-5.204 5.204h-1.278l5.556-5.556h0.927v0.351zM15.188 12.222l-5.556 5.556h-1.278l5.556-5.556h1.278zM12.246 12.222l-5.556 5.556h-1.278l5.556-5.556h1.278zM9.304 12.222l-5.556 5.556h-1.278l5.556-5.556h1.278zM6.363 12.222l-4.141 4.141v-1.266l2.876-2.876h1.267zM3.434 12.222l-1.212 1.212v-1.212h1.212zM17.778 3.848l-2.819 2.819h-1.278l4.097-4.097v1.278zM17.778 5.511v1.156h-1.156l1.156-1.156zM16.462 2.222l-4.444 4.444h-1.278l4.444-4.444h1.278zM13.521 2.222l-4.444 4.444h-1.278l4.444-4.444h1.278zM10.578 2.222l-4.444 4.444h-1.278l4.444-4.444h1.278zM7.638 2.222l-4.444 4.444h-0.971v-0.306l4.139-4.139h1.278zM4.697 2.222l-2.474 2.474v-1.266l1.209-1.209h1.267zM0 8.889h20v1.111h-20v-1.111z"></path>
</svg>
<svg id="icon-strickout" width="20" height="20" viewBox="0 0 20 20" x="0" y="1475">
<path fill="#d81e06" d="M4.654 6.962c-0.077-0.385-0.115-0.846-0.115-1.308 0-0.5 0.115-1.077 0.346-1.615 0.231-0.577 0.577-1.115 1.077-1.577 0.462-0.462 1.115-0.885 1.846-1.192 0.769-0.308 1.654-0.5 2.731-0.5 0.962 0 1.885 0.115 2.769 0.385 0.692 0.231 1.346 0.615 1.923 1.154 0.231 0.231 0.231 0.615-0.038 0.846l-1.038 0.962c-0.231 0.192-0.577 0.231-0.808 0-0.269-0.269-0.577-0.5-0.923-0.692-0.538-0.269-1.154-0.423-1.885-0.423-0.654 0-1.231 0.077-1.654 0.269s-0.808 0.385-1.077 0.692-0.462 0.577-0.577 0.885-0.154 0.615-0.154 0.846c0 0.423 0.077 0.769 0.192 1.077 0.115 0.269-0.077 0.538-0.346 0.538h-1.885c-0.192 0-0.346-0.192-0.385-0.346zM15.346 12.692h-1.923c-0.269 0-0.462 0.269-0.346 0.5s0.154 0.538 0.154 0.846c0 0.462-0.115 0.885-0.308 1.269-0.231 0.385-0.5 0.654-0.846 0.923-0.346 0.231-0.731 0.423-1.154 0.538s-0.808 0.192-1.231 0.192c-0.731 0-1.423-0.154-2.077-0.462-0.5-0.231-0.923-0.538-1.308-0.962-0.192-0.231-0.577-0.269-0.808-0.077l-1.077 0.923c-0.231 0.192-0.269 0.577-0.038 0.808 0.538 0.615 1.231 1.077 2.038 1.385 1 0.385 2.077 0.577 3.231 0.577 0.846 0 1.654-0.115 2.385-0.385 0.731-0.231 1.385-0.615 1.962-1.077 0.538-0.462 1-1.038 1.308-1.731s0.5-1.423 0.5-2.269c0-0.308 0-0.5-0.038-0.769-0.077-0.077-0.231-0.231-0.423-0.231zM19.192 9.192c-0.077-0.231-0.308-0.346-0.538-0.346h-17.308c-0.269 0-0.462 0.115-0.538 0.346-0.038 0.077-0.038 0.115-0.038 0.192v1.154c0 0.308 0.269 0.615 0.577 0.615h17.308c0.308 0 0.577-0.308 0.577-0.615v-1.154c0-0.077 0-0.115-0.038-0.192z"></path>
</svg>
<svg id="icon-table-attr" width="20" height="20" viewBox="0 0 20 20" x="0" y="1500">
<path fill="#d81e06" d="M19.005 1.319h-17.955c-0.513 0-0.929 0.416-0.929 0.929v15.479c0 0.513 0.416 0.929 0.929 0.929h17.955c0.513 0 0.929-0.416 0.929-0.929v-15.479c0-0.513-0.416-0.929-0.929-0.929l-0-0zM19.005 5.034v3.629h-5.366v-3.629h5.366zM7.344 13.204v-3.612h5.366v3.612h-5.366zM12.71 14.133v3.594h-5.366v-3.594h5.366zM6.415 13.204h-5.366v-3.612h5.366v3.612zM12.71 5.034v3.629h-5.366v-3.629h5.366zM13.638 9.592h5.366v3.612h-5.366v-3.612zM7.55 2.248c0.513 0 0.929 0.416 0.929 0.929s-0.416 0.929-0.929 0.929c-0.513 0-0.929-0.416-0.929-0.929s0.416-0.929 0.929-0.929v-0zM4.764 2.248c0.513 0 0.929 0.416 0.929 0.929s-0.416 0.929-0.929 0.929c-0.513 0-0.929-0.416-0.929-0.929s0.416-0.929 0.929-0.929v-0zM1.978 2.248c0.513 0 0.929 0.416 0.929 0.929s-0.416 0.929-0.929 0.929c-0.513 0-0.929-0.416-0.929-0.929s0.416-0.929 0.929-0.929v-0zM1.978 5.034h4.437v3.629h-5.366l0-3.629h0.929zM1.049 14.133h5.366v3.594h-5.366v-3.594zM13.638 17.727v-3.594h5.366v3.594h-5.366z"></path>
</svg>
<svg id="icon-table" width="23" height="20" viewBox="0 0 23 20" x="0" y="1525">
<path fill="#d81e06" d="M22.308 0h-21.538c-0.613 0-0.769 0.162-0.769 0.769v18.462c0 0.608 0.156 0.769 0.769 0.769h21.538c0.613 0 0.769-0.162 0.769-0.769v-18.462c0-0.608-0.156-0.769-0.769-0.769zM6.923 18.462l-5.41 0.064v-3.885l5.41-0.025v3.846zM6.923 13.077h-5.385v-3.846h5.385v3.846zM6.923 7.692h-5.385v-3.077h5.385v3.077zM14.615 18.462h-6.154v-3.846h6.154v3.846zM14.615 13.077h-6.154v-3.846h6.154v3.846zM14.615 7.692h-6.154v-3.077h6.154v3.077zM21.538 18.462h-5.385v-3.846h5.385v3.846zM21.538 13.077h-5.385v-3.846h5.385v3.846zM21.538 7.692h-5.385v-3.077h5.385v3.077z"></path>
</svg>
<svg id="icon-title" width="20" height="20" viewBox="0 0 20 20" x="0" y="1550">
<path fill="#d81e06" d="M2.269 2.612v6.004h1.665v-6.004h2.269v-1.362h-6.203v1.362h2.269zM8.054 2.457v-1.207h-1.506v1.207h1.506zM6.548 3.282v5.334h1.506v-5.334h-1.506zM10.742 3.282v-1.599h-1.506v1.599h-0.912v0.98h0.912v3.146c0 0.268 0.046 0.485 0.138 0.65s0.217 0.292 0.376 0.382c0.159 0.089 0.343 0.15 0.551 0.181s0.429 0.046 0.663 0.046c0.148 0 0.3-0.003 0.456-0.010s0.297-0.021 0.424-0.041v-1.135c-0.071 0.014-0.145 0.024-0.223 0.031s-0.159 0.010-0.244 0.010c-0.254 0-0.424-0.041-0.509-0.124s-0.127-0.248-0.127-0.495v-2.641h1.103v-0.98h-1.103zM12.201 1.25v7.366h1.506v-7.366h-1.506zM18.176 5.377h-2.449c0.007-0.103 0.030-0.22 0.069-0.351s0.106-0.254 0.201-0.371c0.095-0.117 0.223-0.215 0.382-0.294s0.359-0.119 0.599-0.119c0.368 0 0.642 0.096 0.822 0.289s0.306 0.475 0.376 0.846v0zM15.727 6.305h3.955c0.028-0.413-0.007-0.808-0.106-1.186s-0.26-0.715-0.482-1.011c-0.223-0.296-0.507-0.531-0.854-0.707s-0.753-0.263-1.219-0.263c-0.417 0-0.797 0.072-1.14 0.217s-0.638 0.342-0.885 0.593c-0.247 0.251-0.438 0.548-0.573 0.892s-0.201 0.715-0.201 1.114c0 0.413 0.065 0.791 0.196 1.135s0.316 0.64 0.557 0.887c0.24 0.248 0.534 0.438 0.88 0.573s0.735 0.201 1.166 0.201c0.622 0 1.152-0.138 1.591-0.413s0.763-0.732 0.976-1.372h-1.325c-0.049 0.165-0.184 0.322-0.403 0.469s-0.481 0.222-0.785 0.222c-0.424 0-0.749-0.107-0.976-0.32s-0.35-0.557-0.371-1.032zM0 11.25h20v1.25h-20v-1.25zM0 15h20v1.25h-20v-1.25zM0 18.75h15v1.25h-15v-1.25z"></path>
</svg>
<svg id="icon-ul" width="20" height="20" viewBox="0 0 20 20" x="0" y="1575">
<path fill="#d81e06" d="M18.889 16.667h-11.111c-0.667 0-1.111 0.444-1.111 1.111s0.444 1.111 1.111 1.111h11.111c0.667 0 1.111-0.444 1.111-1.111 0-0.556-0.556-1.111-1.111-1.111z"></path>
<path fill="#d81e06" d="M7.778 3.333h11.111c0.667 0 1.111-0.444 1.111-1.111s-0.444-1.111-1.111-1.111h-11.111c-0.667 0-1.111 0.556-1.111 1.111 0 0.667 0.444 1.111 1.111 1.111z"></path>
<path fill="#d81e06" d="M18.889 8.889h-11.111c-0.667 0-1.111 0.556-1.111 1.111 0 0.667 0.444 1.111 1.111 1.111h11.111c0.667 0 1.111-0.444 1.111-1.111 0-0.556-0.556-1.111-1.111-1.111z"></path>
<path fill="#d81e06" d="M0 2.222c0 1.227 0.995 2.222 2.222 2.222s2.222-0.995 2.222-2.222v0c0-1.227-0.995-2.222-2.222-2.222s-2.222 0.995-2.222 2.222v0z"></path>
<path fill="#d81e06" d="M0 10c0 1.227 0.995 2.222 2.222 2.222s2.222-0.995 2.222-2.222v0c0-1.227-0.995-2.222-2.222-2.222s-2.222 0.995-2.222 2.222v0z"></path>
<path fill="#d81e06" d="M0 17.778c0 1.227 0.995 2.222 2.222 2.222s2.222-0.995 2.222-2.222v0c0-1.227-0.995-2.222-2.222-2.222s-2.222 0.995-2.222 2.222v0z"></path>
</svg>
<svg id="icon-underline" width="20" height="20" viewBox="0 0 20 20" x="0" y="1600">
<path fill="#d81e06" d="M17.115 16.154h-14.231c-0.308 0-0.577 0.269-0.577 0.577v1.154c0 0.308 0.269 0.577 0.577 0.577h14.231c0.308 0 0.577-0.269 0.577-0.577v-1.154c0-0.308-0.269-0.577-0.577-0.577zM9.731 14.615c-2.885-0.154-5.115-2.654-5.115-5.538v-5.231c0-0.423 0.346-0.769 0.769-0.769h0.769c0.423 0 0.769 0.346 0.769 0.769v5.269c0 1.654 1.231 3.077 2.885 3.192 1.808 0.115 3.269-1.308 3.269-3.077v-5.385c0-0.423 0.346-0.769 0.769-0.769h0.769c0.423 0 0.769 0.346 0.769 0.769v5.385c0 3.077-2.577 5.538-5.654 5.385z"></path>
</svg>
<svg id="icon-unlink" width="20" height="20" viewBox="0 0 20 20" x="0" y="1625">
<path fill="#d81e06" d="M9.231 14.077c-0.231 0-0.462-0.038-0.692-0.115-0.231-0.038-0.5-0.115-0.731-0.192-0.154-0.038-0.308 0-0.385 0.077l-0.154 0.154c-0.962 0.962-2.538 1.077-3.577 0.192-1.115-1-1.192-2.731-0.115-3.769l2.538-2.538c0.346-0.346 0.731-0.538 1.154-0.654 0.538-0.154 1.115-0.115 1.615 0.115 0.308 0.115 0.615 0.308 0.846 0.577 0.115 0.115 0.231 0.269 0.346 0.462 0.115 0.231 0.423 0.269 0.615 0.077l0.962-0.962c0.154-0.154 0.154-0.346 0.038-0.5-0.154-0.192-0.308-0.346-0.462-0.538-0.231-0.231-0.538-0.462-0.808-0.654-0.5-0.308-1-0.5-1.577-0.615-1.038-0.192-2.154-0.038-3.154 0.5-0.385 0.192-0.731 0.462-1.038 0.769l-2.462 2.462c-1.769 1.769-1.923 4.654-0.192 6.5 1.808 1.923 4.846 2 6.692 0.115l0.846-0.846c0.192-0.192 0.038-0.577-0.308-0.615zM15.577 8.654c1.846-1.846 1.808-4.885-0.115-6.692-1.846-1.692-4.731-1.577-6.5 0.192l-0.769 0.769c-0.231 0.231-0.077 0.615 0.231 0.654 0.462 0.038 0.962 0.115 1.423 0.269 0.154 0.038 0.308 0 0.385-0.077l0.154-0.154c0.962-0.962 2.538-1.077 3.577-0.192 1.115 1 1.192 2.731 0.115 3.769l-2.538 2.538c-0.346 0.346-0.731 0.538-1.154 0.654-0.538 0.154-1.115 0.115-1.615-0.115-0.308-0.115-0.615-0.308-0.846-0.577-0.115-0.115-0.231-0.269-0.308-0.423-0.115-0.231-0.423-0.269-0.615-0.077l-0.923 0.923c-0.154 0.154-0.154 0.346-0.038 0.5 0.154 0.192 0.269 0.346 0.462 0.538 0.269 0.269 0.538 0.462 0.808 0.654 0.5 0.308 1 0.5 1.577 0.615 1.038 0.192 2.154 0.038 3.154-0.5 0.385-0.192 0.731-0.462 1.038-0.769l2.5-2.5zM17.346 15.769l1.769-1.769c0.154-0.154 0.154-0.385 0-0.538l-1.077-1.077c-0.154-0.154-0.385-0.154-0.538 0l-1.731 1.808-1.654-1.654c-0.154-0.154-0.385-0.154-0.538 0l-1.077 1.077c-0.154 0.154-0.154 0.385 0 0.538l1.654 1.654-1.615 1.615c-0.154 0.154-0.154 0.385 0 0.538l1.077 1.077c0.154 0.154 0.385 0.154 0.538 0l1.615-1.615 1.731 1.731c0.154 0.154 0.385 0.154 0.538 0l1.077-1.077c0.154-0.154 0.154-0.385 0-0.538l-1.769-1.769z"></path>
</svg>
<svg id="icon-up-tag" width="20" height="20" viewBox="0 0 20 20" x="0" y="1650">
<path fill="#d81e06" d="M16.663 5.616v1.369h3.337v1.743h-5.002v-3.979l3.33-1.637v-1.369h-3.33v-1.742h5.002v3.979l-3.337 1.637zM11.746 0.952l-4.31 6.504-4.317-6.504h-3.118l5.869 8.854-5.869 8.854h3.118l4.317-6.504 4.31 6.504h3.118l-5.869-8.854 5.869-8.854z"></path>
</svg>
<svg id="icon-vedio" width="20" height="20" viewBox="0 0 20 20" x="0" y="1675">
<path fill="#d81e06" d="M19.231 0.769h-0.769v1.538h-2.308v-1.538h-12.308v1.538h-2.308v-1.538h-0.769c-0.424 0-0.769 0.345-0.769 0.769v16.923c0 0.424 0.345 0.769 0.769 0.769h0.769v-0.769h2.308v0.769h12.308v-0.769h2.308v0.769h0.769c0.424 0 0.769-0.345 0.769-0.769v-16.923c0-0.424-0.345-0.769-0.769-0.769zM3.846 16.154h-2.308v-2.308h2.308v2.308zM3.846 11.538h-2.308v-2.308h2.308v2.308zM3.846 6.923h-2.308v-2.308h2.308v2.308zM13.529 10.505l-5.002 2.918c-0.082 0.041-0.171 0.060-0.259 0.060-0.106 0-0.209-0.028-0.303-0.084-0.169-0.102-0.272-0.285-0.272-0.481v-5.835c0-0.196 0.103-0.379 0.272-0.482 0.171-0.103 0.384-0.112 0.562-0.023l5.002 2.917c0.195 0.096 0.318 0.291 0.318 0.505s-0.123 0.408-0.317 0.505zM18.462 16.154h-2.308v-2.308h2.308v2.308zM18.462 11.538h-2.308v-2.308h2.308v2.308zM18.462 6.923h-2.308v-2.308h2.308v2.308z"></path>
</svg>
<svg id="icon-template" width="20" height="20" viewBox="0 0 20 20" x="0" y="1700">
<path fill="#d81e06" d="M11.030 5.63h-10.63v10.67h10.63v-10.67zM8.29 13.55h-0.85v-3.82l-1.32 3.82h-0.76l-1.31-3.88v3.88h-0.85v-5.35h1.19l1.24 3.72c0.060 0.18 0.11 0.33 0.15 0.47 0.050-0.15 0.11-0.33 0.18-0.53l1.25-3.65h1.090v5.34zM18.6 3.55l-2.53-2.54c-0.55-0.55-1.64-1.010-2.42-1.010h-8.5c-0.78 0-1.42 0.64-1.42 1.42v2.87h1.13v-2.87c0-0.15 0.13-0.28 0.28-0.28h8.5c0.080 0 0.18 0.010 0.28 0.030v4.52h4.5c0.020 0.1 0.030 0.66 0.030 0.75v12.14c0 0.15-0.13 0.28-0.28 0.28h-13.040c-0.15 0-0.28-0.13-0.28-0.28v-0.95h-1.13v0.95c0 0.78 0.64 1.42 1.42 1.42h13.040c0.78 0 1.42-0.64 1.42-1.42v-12.14c0-0.78-0.45-2.34-1-2.89zM15.070 4.55v-2.91c0.080 0.050 0.14 0.11 0.2 0.17l2.53 2.54c0.060 0.060 0.11 0.12 0.17 0.2h-2.9zM12.33 12h4.65v-1.33h-4.65v1.33zM12.33 14.67h4.65v-1.33h-4.65v1.33zM16.98 8h-4.65v1.33h4.65v-1.33z"></path>
</svg>
<svg id="icon-fontcolor" width="20" height="20" viewBox="0 0 20 20" x="0" y="1725">
<path fill="#d81e06" d="M1.313 15.607v2.631h11.402l2.631-2.631h-14.033zM14.469 18.238h4.385v-4.385l-4.385 4.385z"></path>
<path fill="#d81e06" d="M15.423 15.168h-2.207l-1.796-4.212h-5.525l-1.778 4.212h-2.253l5.788-13.381h2.075l5.697 13.381zM10.706 9.094l-2.031-4.519-2.049 4.519h4.080z"></path>
</svg>
<svg id="icon-graft2" width="23" height="20" viewBox="0 0 23 20" x="0" y="1750">
<path fill="#d81e06" d="M14.572 0.63c0.27-0.273 0.645-0.442 1.059-0.442s0.789 0.169 1.059 0.442l2.080 2.080c0.271 0.271 0.439 0.646 0.439 1.059s-0.168 0.788-0.439 1.059l-11.67 11.67c-0.585 0.585-1.706 1.193-2.53 1.361l-3.81 0.781 0.781-3.81c0.166-0.813 0.775-1.946 1.36-2.531l11.67-11.67zM12.45 2.752l-1.060 1.061 4.197 4.199 1.061-1.061-4.199-4.199zM15.23 16.005c1.131-0.571 1.318-1.081 0.799-1.907-0.422-0.671-2.094-0.356-2.246 1.006-0.055 0.498 0.146 0.941 0.526 1.283 0.35-0.12 0.656-0.246 0.921-0.381zM16.329 17.102c-0.115 0.073-0.257 0.154-0.403 0.229l-0.031 0.015c-0.495 0.251-1.096 0.475-1.803 0.675-1.588 0.45-3.71 0.771-6.38 0.976-0.016 0.001-0.034 0.002-0.053 0.002-0.393 0-0.715-0.304-0.743-0.689l-0-0.002c-0.002-0.018-0.002-0.039-0.002-0.060 0-0.391 0.301-0.712 0.683-0.745l0.003-0c2.065-0.159 3.776-0.389 5.126-0.685 0.599-0.13 1.126-0.275 1.582-0.431 0.459 0.414 1.179 0.68 2.020 0.716 1.226 0.054 2.713-0.379 4.025-1.553 0.13-0.117 0.302-0.188 0.492-0.188 0.221 0 0.42 0.098 0.555 0.252l0.001 0.001c0.116 0.132 0.187 0.306 0.187 0.497 0 0.223-0.096 0.423-0.25 0.561l-0.001 0.001c-2.36 2.109-5.362 2.319-7.245 1.349-0.578-0.297-1.050-0.706-1.366-1.205-0.277-0.432-0.441-0.959-0.441-1.524 0-0.126 0.008-0.25 0.024-0.371l-0.002 0.014c0.313-2.813 3.822-3.475 4.974-1.644 0.94 1.496 0.563 2.864-0.953 3.81z"></path>
</svg>
<svg id="icon-insert-col2" width="20" height="20" viewBox="0 0 20 20" x="0" y="1775">
<path fill="#d81e06" d="M2.5 20h2.5s1.25-0.56 1.25-1.25v-12.5c0-0.69-0.56-1.25-1.25-1.25h-2.5c-0.69 0-1.25 0.56-1.25 1.25v12.5c0 0.69 0.56 1.25 1.25 1.25zM2.5 6.25h2.5v3.75h-2.5v-3.75zM2.5 11.25h2.5v2.5h-2.5v-2.5zM2.5 15h2.5v3.75h-2.5v-3.75zM8.75 3.75l2.5-3.75h-6.25l2.5 3.75h1.25zM10 6.25v12.5c0 0.69 0.56 1.25 1.25 1.25h6.25s1.25-0.56 1.25-1.25v-12.5c0-0.69-0.56-1.25-1.25-1.25h-6.25c-0.69 0-1.25 0.56-1.25 1.25zM11.25 11.25h2.5v2.5h-2.5v-2.5zM11.25 18.75v-3.75h2.5v3.75h-2.5zM15 6.25h2.5v3.75h-2.5v-3.75zM15 11.25h2.5v2.5h-2.5v-2.5zM15 15h2.5v3.75h-2.5v-3.75zM13.75 10h-2.5v-3.75h2.5v3.75z"></path>
</svg>
<svg id="icon-insert-row2" width="23" height="20" viewBox="0 0 23 20" x="0" y="1800">
<path fill="#d81e06" d="M1.443 0h14.286c0.789 0 1.429 0.64 1.429 1.429v7.143s-0.64 1.429-1.429 1.429h-14.286c-0.789 0-1.429-0.64-1.429-1.429v-7.143s0.64-1.429 1.429-1.429zM11.443 8.571h4.286v-2.857h-4.286v2.857zM11.443 4.286h4.286v-2.857h-4.286v2.857zM7.157 8.571h2.857v-2.857h-2.857v2.857zM7.157 4.286h2.857v-2.857h-2.857v2.857zM1.443 8.571h4.286v-2.857h-4.286v2.857zM5.728 4.286v-2.857h-4.286v2.857h4.286zM1.443 14.286h14.286c0.789 0 1.429 0.64 1.429 1.429v2.857s-0.64 1.429-1.429 1.429h-14.286c-0.789 0-1.429-0.64-1.429-1.429v-2.857s0.64-1.429 1.429-1.429zM11.443 18.571h4.286v-2.857h-4.286v2.857zM7.157 18.571h2.857v-2.857h-2.857v2.857zM1.443 18.571h4.286v-2.857h-4.286v2.857zM22.871 15.714l-4.286-2.857v-1.429l4.286-2.857v7.143z"></path>
</svg>
<svg id="icon-split-table" width="20" height="20" viewBox="0 0 20 20" x="0" y="1825">
<path fill="#d81e06" d="M0 0h20v20h-20v-20zM17.76 5.973v-3.733h-6.667v3.733h6.667zM17.76 17.76v-3.733h-6.667v3.733h6.667zM8.907 5.973v-3.733h-6.667v3.733h6.667zM8.907 17.76v-3.733h-6.667v3.733h6.667zM13.333 11.867v-3.733h-2.24v3.733h2.24zM17.76 11.867v-3.733h-2.24v3.733h2.24zM4.48 11.867v-3.733h-2.24v3.733h2.24zM8.907 11.867v-3.733h-2.24v3.733h2.24z"></path>
</svg>
<svg id="icon-merge-table2" width="26" height="20" viewBox="0 0 26 20" x="0" y="1850">
<path fill="#d81e06" d="M24.122 2.871c0-0.769-0.302-1.497-0.853-2.038-0.538-0.541-1.256-0.832-2.025-0.832h-0.020l-13.556 0.074c-0.769 0-1.497 0.302-2.038 0.853s-0.832 1.277-0.832 2.046l0.074 13.556c0 0.769 0.302 1.497 0.853 2.038 0.541 0.541 1.259 0.832 2.028 0.832h0.020l13.556-0.074c0.769 0 1.497-0.302 2.038-0.853s0.832-1.279 0.832-2.048l-0.076-13.553zM18.228 1.31l3.015-0.020c0.416 0 0.812 0.168 1.122 0.467 0.302 0.302 0.467 0.695 0.467 1.122l0.020 3.076h-4.624v-4.645zM12.251 1.34l4.678-0.030v4.647h-4.678v-4.617zM10.952 18.079l-3.19 0.020c-0.426 0-0.822-0.155-1.122-0.457-0.302-0.302-0.467-0.695-0.467-1.122l-0.020-3.223h4.802v4.782zM10.952 11.997h-4.805l-0.020-4.741h4.835v4.741h-0.010zM10.952 5.957h-4.835l-0.020-2.995c0-0.416 0.155-0.822 0.457-1.122 0.302-0.302 0.695-0.467 1.122-0.467l3.274-0.020v4.604z"></path>
<path fill="#d81e06" d="M19.721 1.848c-0.010 0-0.010 0.010 0 0z"></path>
</svg>
</svg>
